<?xml version="1.0" encoding="utf-8"?>
<!-- Uploaded to: SVG Repo, www.svgrepo.com, Generator: SVG Repo Mixer Tools -->
<svg width="800px" height="800px" viewBox="-15.32 0 321.759 321.759" xmlns="http://www.w3.org/2000/svg"><defs><style>.a{fill:#ad7b59;}.b{fill:#211715;}.c{fill:#ffffff;}</style></defs><path class="a" d="M111.5,123.191s3.416-1.558,7.07-3.221a46.816,46.816,0,0,1-8.478-8.023,44.177,44.177,0,0,1-8.547-17l-.482.121c-2.571.643-4.6-.652-6.03-1.8A16.4,16.4,0,0,1,90.8,87.711a25.79,25.79,0,0,1-2.629-13.67,8.587,8.587,0,0,1,.9-3.461,6.086,6.086,0,0,1,4.376-2.91A6.446,6.446,0,0,1,98.6,69.179l2.659,2.4c8.367-5.911,21.758-15.452,29.038-20.858-.178,1.139-.621,2.715-1.007,4.267-.737,2.968-1.267,5.847.656,5.415,12.316-2.66,21.748-9.191,29.558-16.867,1.6,4.05,4.187,11.061,6.092,13.761,2.67,3.785,10.3,14.091,17.995,15.965.522-2.907,3.758-4.606,6.673-4.171A6.089,6.089,0,0,1,194.642,72a8.62,8.62,0,0,1,.9,3.462,25.789,25.789,0,0,1-2.63,13.669,16.384,16.384,0,0,1-4.238,5.562c-1.5,1.2-4.21,1.111-6.091,1.445-.365,1.274-.739,2.33-.936,2.928-1.441,3.911-9.389,17.6-19.456,22.982l7.518,1.735a48.366,48.366,0,0,1,6.841,1.9,132.406,132.406,0,0,1,20.614,8.7l.936-.038c4.79-3.02,7.89-8.09,7.85-12.46a37.121,37.121,0,0,0-2.57-13.31c-2.12-5.849-6.218-17.735-6.52-38.956.593-6.428-.021-15.728-.287-19.3-.924-12.371-6.722-26.187-15.066-33.865-3.607-3.32-4.655-4.869-8.581-6.9l-4.4-2.279-2.17-.839a63.11,63.11,0,0,0-24.222-4.426c-16.686,0-31.538,8.2-38.129,14.219C93.071,26.211,86.135,44.45,87.01,69.6v.005c0,17.04-1.46,29.34-3.51,36.32a78.15,78.15,0,0,0-2.64,17.61,13.045,13.045,0,0,0,3.691,8.81C94.139,128.979,107.351,125.084,111.5,123.191Z"/><path class="b" d="M94.393,118.019a26.261,26.261,0,0,0,20.544,10.03c2.575.034,2.576-3.966,0-4-6.4-.086-13.137-2.863-17.091-8.049a2.065,2.065,0,0,0-2.736-.717,2.013,2.013,0,0,0-.717,2.736Z"/><path class="b" d="M183.018,118.8a14.576,14.576,0,0,1-5.612,4.323,13.9,13.9,0,0,1-1.48.582c-.6.2-1.216.378-1.835.523a15.577,15.577,0,0,1-3.742.44,2,2,0,0,0,0,4c5.772-.075,11.831-2.452,15.5-7.04a2.06,2.06,0,0,0,0-2.828,2.013,2.013,0,0,0-2.828,0Z"/><path class="c" d="M129.292,54.988c-.737,2.968-1.267,5.847.656,5.415,12.315-2.66,21.748-9.191,29.558-16.867,1.6,4.05,4.187,11.061,6.092,13.761,2.67,3.785,10.3,14.091,17.995,15.965.522-2.907,3.758-4.606,6.673-4.171A6.089,6.089,0,0,1,194.642,72a8.62,8.62,0,0,1,.9,3.462,25.789,25.789,0,0,1-2.63,13.669,16.384,16.384,0,0,1-4.238,5.562c-1.5,1.2-4.21,1.111-6.091,1.445-.365,1.274-.739,2.33-.936,2.929-1.441,3.91-9.389,17.6-19.456,22.981l7.518,1.735a51.345,51.345,0,0,1,7.14,1.654l-.327.27c-7.909,7.443-18.477,14.077-33.614,14.077-14.845,0-28.718-6.8-34.831-13.915l-.584-.788c2.153-.74,3.9-1.387,5.008-1.891l7.063-2.53a45.762,45.762,0,0,1-9.472-8.714,44.188,44.188,0,0,1-8.546-17l-.482.121c-2.571.642-4.6-.652-6.03-1.8A16.4,16.4,0,0,1,90.8,87.711a25.79,25.79,0,0,1-2.629-13.67,8.587,8.587,0,0,1,.9-3.461,6.086,6.086,0,0,1,4.376-2.91A6.446,6.446,0,0,1,98.6,69.179l2.659,2.4c8.367-5.911,21.758-15.452,29.038-20.858C130.121,51.86,129.678,53.436,129.292,54.988Z"/><path class="c" d="M81.242,261.8c3.424-11.232,6.576-20.764,8.221-23.61,9.78-1.067,25.071-1.956,34.851-1.432a96.765,96.765,0,0,1,21.132,3.506c22.832-4.02,49.185-3.528,59.449-2.112,1.422,4.445,13.045,64.353,14.761,72.91q-1.853-.569-3.91-1.063c.109.6.186,1,.186,1,.352,2.067,1.011,5.647,1.29,7.437-21.734-3.326-56.4-3.326-72.179,1.341-24.444-7.556-61.555-5.778-75.364-1.811.846-2.708,2.253-7.152,2.994-9.375,0,0,.025-.1.066-.273a36.539,36.539,0,0,0-5.474,1.681C67.773,308.691,74.965,282.39,81.242,261.8Z"/><path class="c" d="M90.327,201.585a55.821,55.821,0,0,0-2.284-8.579,30.8,30.8,0,0,1-.753-3.265l-.4.561c-3.148,5.333-4.233,8.789-6.185,14.926-1.556,4.889,7.826,15.773,10.555,19a27.683,27.683,0,0,0-15.333,2.889c-2.8,1.343-11.068,11.349-11.111,13.555-8.973-2.826-23.365-20.8-23.556-30.333-.171-8.581,10.087-34.227,19.111-51,4.926-9.156,10.741-19.407,15.112-22.667,3.457-2.716,21.967-8.139,31.939-11.566.413.486.651.764.651.764,6.113,7.119,19.986,13.915,34.831,13.915,15.137,0,25.705-6.634,33.614-14.077l.3-.279c13.6,4.066,30.354,13.394,34.669,17.021,4.888,4.3,22.173,31.744,29.469,47.835,4.628,10.207,9.039,19.708,5.642,30.387-1.949,6.126-20.445,18-25.111,21.334-4.889-5.334-18-13.933-24.889-19.556,4.459-3.623,9.967-8.295,14.058-13.769a2.274,2.274,0,0,0,.222-2.306c-2.162-4.748-7.795-11.595-11.243-14.74l-2.2-1.638a37.592,37.592,0,0,1-.69,4.3c-1.174,4.694-2.377,22.376-3.085,30.914-20.188,0-82.832.038-100.768.038,0,0-.2,0-.558.007a88.674,88.674,0,0,0-.489-12.144C90.951,206.621,90.673,203.763,90.327,201.585Z"/><path class="b" d="M74.478,134.946c-3.43,2.622-5.891,6.406-8.175,10.013-2.87,4.533-5.458,9.248-7.98,13.981a254.308,254.308,0,0,0-11.926,26c-2.824,7.128-5.8,14.612-6.874,22.25-.967,6.843,2.373,13.16,6.154,18.658a62.138,62.138,0,0,0,8.992,10.5c2.8,2.577,5.958,5.066,9.62,6.259a2.023,2.023,0,0,0,2.532-1.929c-.047.728-.066.185.034.016.052-.087.222-.5.015-.056a12.148,12.148,0,0,1,.624-1.15c.551-.917,1.171-1.792,1.809-2.649a53.835,53.835,0,0,1,4.86-5.654c.4-.4.806-.8,1.227-1.182.159-.145.322-.285.484-.427.057-.049.477-.383.192-.167a14.019,14.019,0,0,1,3.869-1.795,24.792,24.792,0,0,1,11.33-1.38c1.9.24,2.394-2.257,1.415-3.414-3.481-4.113-7.3-8.45-9.4-13.467a8.778,8.778,0,0,1-.739-2.83c0-.1.095-.841.01-.411a11.06,11.06,0,0,1,.364-1.2c.333-1.045.666-2.09,1.013-3.13a54.687,54.687,0,0,1,4.7-10.459c1.3-2.226-2.152-4.241-3.454-2.019a55.609,55.609,0,0,0-4.248,8.967c-.576,1.569-1.092,3.16-1.6,4.752a10.656,10.656,0,0,0-.774,3.706,15.658,15.658,0,0,0,2.286,6.668,53.887,53.887,0,0,0,4.5,6.695c1.453,1.9,2.974,3.737,4.518,5.561l1.414-3.414a27.679,27.679,0,0,0-12.829,1.679,17.625,17.625,0,0,0-4.389,2.042,22.56,22.56,0,0,0-2.712,2.4,60.643,60.643,0,0,0-5.648,6.683c-1.188,1.615-2.733,3.556-2.866,5.639l2.532-1.928a22.66,22.66,0,0,1-7.291-4.718,56.166,56.166,0,0,1-7.69-8.462,47.476,47.476,0,0,1-5.594-9.4,14.716,14.716,0,0,1-1.45-7.368,48.983,48.983,0,0,1,1.878-8.439c1.149-3.912,2.511-7.761,3.963-11.569a251.255,251.255,0,0,1,11.045-24.835c2.536-4.961,5.223-9.865,8.1-14.637,1.376-2.282,2.806-4.538,4.384-6.687a21.713,21.713,0,0,1,3.8-4.231,2.064,2.064,0,0,0,.717-2.736,2.012,2.012,0,0,0-2.736-.717Z"/><path class="b" d="M198.221,193.05a55.289,55.289,0,0,1,5.752,6.32,34.691,34.691,0,0,1,4.925,7.478c.253.592.178.622-.231,1.172-.55.739-1.162,1.442-1.768,2.136-1.2,1.37-2.461,2.681-3.768,3.946-2.528,2.447-5.219,4.715-7.947,6.934a2,2,0,0,0,0,2.828c4.3,3.5,8.846,6.683,13.3,9.977,4,2.958,8.195,5.916,11.59,9.579a2.014,2.014,0,0,0,2.424.313c5.667-4.036,11.485-7.831,16.9-12.221a42.21,42.21,0,0,0,7.61-7.457c2.65-3.6,3.043-8.855,2.721-13.161-.444-5.916-2.557-11.461-4.9-16.851-1.834-4.213-3.781-8.369-5.906-12.443-4.164-7.985-8.743-15.765-13.565-23.369-2.328-3.673-4.717-7.314-7.261-10.841a38.236,38.236,0,0,0-5.186-6.354c-1.916-1.708-4.755,1.111-2.829,2.828A28.571,28.571,0,0,1,214,148.54c2.086,2.836,4.05,5.763,5.97,8.714q7.114,10.936,13.377,22.408c1.9,3.492,3.742,7.022,5.419,10.628,2.34,5.03,4.731,10.144,6.091,15.543a28.61,28.61,0,0,1,.923,8.118,22.257,22.257,0,0,1-.553,4.144c-.159.692-.374,1.362-.559,2.046-.133.49.091-.063-.164.392a25.717,25.717,0,0,1-5.88,6.428c-5.693,4.922-12.033,8.963-18.148,13.318l2.424.313c-3.455-3.728-7.736-6.744-11.8-9.76-4.373-3.246-8.862-6.359-13.089-9.8v2.828a114.506,114.506,0,0,0,8.873-7.846A58.771,58.771,0,0,0,211,211.475c1.271-1.573,2.532-3.15,1.931-5.3a16.98,16.98,0,0,0-2.216-4.221c-.932-1.469-1.952-2.88-3.013-4.258a58.777,58.777,0,0,0-6.65-7.474c-1.891-1.741-4.727,1.08-2.829,2.829Z"/><path class="b" d="M205.427,236.225a146.6,146.6,0,0,0-18.57-1.092,255.5,255.5,0,0,0-26.128,1.1c-5.3.5-10.575,1.185-15.815,2.1h1.063c-14.123-4.022-28.622-4.108-43.162-3.243q-5,.3-9.981.757c-1.3.121-3.532-.041-4.582.769a3.721,3.721,0,0,0-.966,1.427,69.159,69.159,0,0,0-2.836,7.236c-2.707,7.751-5.058,15.629-7.394,23.5-2.532,8.527-4.983,17.078-7.41,25.636-1.386,4.884-2.8,9.762-4.176,14.65-.038.137-.083.274-.133.407a2.01,2.01,0,0,0,2.46,2.46,49.831,49.831,0,0,1,11.3-2.782,140.779,140.779,0,0,1,15.154-1.35,200.808,200.808,0,0,1,33.174,1.182,80.168,80.168,0,0,1,12.789,2.479c.813.24,1.619.5,2.412.8a17.948,17.948,0,0,1,1.78.771,2.525,2.525,0,0,0,2.376-.108l.452-.212c.1-.048.21-.094.315-.138-.184.078-.151.063.015,0q1.182-.464,2.4-.828a71.454,71.454,0,0,1,13.4-2.409,172.774,172.774,0,0,1,17.562-.813c11.569.013,23.408.725,34.676,3.5q1.773.438,3.519.968a2.023,2.023,0,0,0,2.46-2.461c-1.807-9.018-3.548-18.049-5.328-27.072-2.371-12.02-4.735-24.041-7.236-36.034-.678-3.249-1.2-6.632-2.2-9.8-.771-2.446-4.634-1.4-3.857,1.064.84,2.661,1.29,5.488,1.864,8.213,1.116,5.3,2.188,10.614,3.256,15.926q3.7,18.417,7.294,36.855c.78,3.972,1.552,7.946,2.347,11.916l2.46-2.461c-10.155-3.089-21.036-4.052-31.6-4.461a162.966,162.966,0,0,0-32.162,1.558,40.786,40.786,0,0,0-11.949,3.38H146.5a43.712,43.712,0,0,0-11.866-3.546,147.294,147.294,0,0,0-16.872-1.985,192.4,192.4,0,0,0-36.147.725c-5,.617-10.179,1.359-14.878,3.271l2.46,2.46c.874-2.311,1.406-4.8,2.078-7.177q2.215-7.826,4.444-15.649c3.54-12.369,7.087-24.752,11.108-36.976.821-2.5,1.662-4.985,2.587-7.444.173-.459.348-.916.529-1.372.083-.207.167-.413.251-.62.039-.1.08-.195.121-.292.08-.195-.2.447-.013.033a20.351,20.351,0,0,1,.891-1.839l-1.727.991c7.408-.8,14.859-1.284,22.306-1.5a117.273,117.273,0,0,1,23.584,1.313q3.352.585,6.657,1.406a22.257,22.257,0,0,0,3.17.816,14.473,14.473,0,0,0,3.38-.469c4.183-.669,8.391-1.174,12.609-1.565,7.975-.739,15.989-1.083,24-1.072,3.732,0,7.466.088,11.193.286,1.54.082,3.079.184,4.615.316q.963.084,1.925.185.441.048.88.1c.157.019.893.114.583.072a2.07,2.07,0,0,0,2.46-1.4A2.014,2.014,0,0,0,205.427,236.225Z"/><path class="b" d="M143.736,248.228c-.422,15.555-.139,31.149-.094,46.708.007,2.282.019,4.565.019,6.848,0,2.573,4,2.578,4,0,0-14.553-.1-29.1-.034-43.657.015-3.3.02-6.6.109-9.9.07-2.575-3.93-2.573-4,0Z"/><path class="b" d="M197.117,169.117c-.447,5.7-.779,11.414-1.295,17.11-.194,2.141-.38,4.3-.766,6.414-.223,1.22-.521,2.418-.707,3.647-1.224,8.085-1.691,16.3-2.329,24.444-.149,1.905-.3,3.81-.462,5.713-.057.655-.115,1.311-.183,1.965-.023.218-.051.435-.073.653-.05.494.093-.539-.013.055a2.056,2.056,0,0,0,1.4,2.46,2.018,2.018,0,0,0,2.461-1.4c.453-2.534.536-5.163.739-7.724.333-4.212.653-8.425,1.014-12.634.183-2.138.376-4.276.591-6.411q.139-1.385.295-2.768.078-.693.163-1.386c.026-.21.149-1.163.12-.95.46-3.371,1.212-6.66,1.559-10.056.651-6.365.99-12.758,1.49-19.136.2-2.567-3.8-2.554-4,0Z"/><path class="b" d="M82.932,166.228c.132,5.214.575,10.424,1.193,15.6a69.437,69.437,0,0,0,1.99,11.707A71.056,71.056,0,0,1,88.3,201.5c.1.555.18,1.113.259,1.671.016.118.026.187.086.655s.118.932.176,1.4q.441,3.515.91,7.026a76.24,76.24,0,0,1,.615,10.309,45.324,45.324,0,0,0,.291,7.622,2.016,2.016,0,0,0,2.46,1.4,2.046,2.046,0,0,0,1.4-2.46,43.456,43.456,0,0,1-.148-6.353,73.954,73.954,0,0,0-.406-8.954c-.5-4.134-1-8.288-1.626-12.406a49.725,49.725,0,0,0-1.8-7.194,63.314,63.314,0,0,1-2.16-10.563,167.615,167.615,0,0,1-1.419-17.42c-.065-2.569-4.066-2.579-4,0Z"/><path class="b" d="M244.376,227.18q18.861,0,37.723-.041,3.545,0,7.091-.006c2.573,0,2.578-4,0-4q-17.125,0-34.251.041-5.281,0-10.563.006c-2.573,0-2.578,4,0,4Z"/><path class="b" d="M1.932,227.18q18.214,0,36.428-.041l6.905-.006c2.574,0,2.578-4,0-4q-16.477,0-32.956.041-5.188,0-10.377.006c-2.574,0-2.578,4,0,4Z"/><path class="b" d="M104.525,227.254q16.575,0,33.15-.014,20.038-.012,40.078-.022,8.423,0,16.846,0c2.573,0,2.578-4,0-4q-16.893,0-33.786.014l-39.9.022q-8.195,0-16.387,0c-2.574,0-2.579,4,0,4Z"/><path class="b" d="M63.386,207.77c-.676.3-.217.09-.038.033.139-.045.28-.082.422-.116.17-.039.342-.069.514-.1.152-.026.429-.02-.182.022.087-.006.173-.02.26-.029a15.238,15.238,0,0,1,2.311-.042c.386.02.771.059,1.156.1.356.038-.387-.06-.137-.019.092.015.184.027.276.042.18.029.359.061.537.1a10.047,10.047,0,0,1,1.025.259c.144.045.285.1.427.147.316.115-.155-.083-.208-.089a.806.806,0,0,1,.211.1,2,2,0,1,0,2.018-3.454,13.225,13.225,0,0,0-5.3-1.185,11.43,11.43,0,0,0-5.306.778,2.008,2.008,0,0,0-.718,2.736,2.06,2.06,0,0,0,2.737.718Z"/><path class="b" d="M212.386,209.177a8.467,8.467,0,0,1,.794-.472q.208-.109.422-.208c.081-.038.164-.073.245-.111.225-.1-.41.165-.175.074a18.983,18.983,0,0,1,2.056-.685c.667-.179,1.342-.312,2.024-.424.278-.045-.177.019-.221.029.08-.018.169-.021.252-.031.146-.016.292-.029.438-.04.292-.022.585-.032.878-.025a2,2,0,0,0,0-4,16.137,16.137,0,0,0-4.435.634,14.305,14.305,0,0,0-4.3,1.805,2,2,0,1,0,2.019,3.454Z"/><path class="b" d="M214,311.537c.426,2.48.9,4.953,1.29,7.438l2.461-2.46a229.433,229.433,0,0,0-30.013-2.367,217.478,217.478,0,0,0-29.945,1.227,81.576,81.576,0,0,0-13.285,2.48h1.064c-10.59-3.248-21.776-4.559-32.808-5.078a187.662,187.662,0,0,0-31.021.977,81.146,81.146,0,0,0-12.6,2.291l2.461,2.46c.978-3.131,1.959-6.262,2.993-9.375.814-2.448-3.048-3.5-3.857-1.063-1.034,3.113-2.015,6.244-2.993,9.374a2.017,2.017,0,0,0,2.46,2.461c7.455-2.121,15.4-2.719,23.109-3.1a190.988,190.988,0,0,1,31.577.953,118.861,118.861,0,0,1,15.316,2.754q1.673.423,3.327.91a4,4,0,0,0,2.035.293c.468-.095.934-.267,1.4-.388,1.832-.48,3.691-.859,5.557-1.183a173.767,173.767,0,0,1,29.433-2.046,229.824,229.824,0,0,1,34.727,2.277,2.036,2.036,0,0,0,2.46-2.46c-.392-2.486-.864-4.958-1.289-7.438a2.017,2.017,0,0,0-2.461-1.4,2.046,2.046,0,0,0-1.4,2.46Z"/><path class="b" d="M175.109,124.294c-6.458,6.051-14.058,10.668-22.781,12.537a49.43,49.43,0,0,1-31.087-3.955,35.591,35.591,0,0,1-11.748-8.42c-1.693-1.946-4.512.893-2.829,2.828,6.608,7.595,17.177,11.955,26.891,13.651a49.664,49.664,0,0,0,31.793-4.622,58.374,58.374,0,0,0,12.589-9.191c1.883-1.764-.95-4.588-2.828-2.828Z"/><path class="b" d="M186.522,72.015c1.939-1.631,5.345-1.212,6.485,1.175a10.547,10.547,0,0,1,.629,4.463,22.958,22.958,0,0,1-.479,4.7,22.222,22.222,0,0,1-3.654,8.595,6.633,6.633,0,0,1-2.866,2.561,25.213,25.213,0,0,1-4.331.66,2.012,2.012,0,0,0-1.4,2.46,2.052,2.052,0,0,0,2.46,1.4c1.856-.263,3.735-.29,5.463-1.1a12.162,12.162,0,0,0,4.363-4.3,26.841,26.841,0,0,0,4.251-11.911c.447-3.774.547-8.71-2.49-11.5a8.5,8.5,0,0,0-11.262-.033c-1.973,1.659.869,4.476,2.828,2.829Z"/><path class="b" d="M181.556,90.582a21.994,21.994,0,0,1-1.039,5.5c-.2.662-.416,1.317-.635,1.972-.067.2-.134.395-.2.592s-.215.514-.046.128a43.072,43.072,0,0,1-2.851,5.293,53.108,53.108,0,0,1-11.41,13.476,21.379,21.379,0,0,1-8.547,4.429c-2.506.581-1.445,4.439,1.064,3.857,6.476-1.5,11.853-6.232,16.079-11.152a57.769,57.769,0,0,0,9-13.612,28.664,28.664,0,0,0,2.59-10.48c.092-2.575-3.908-2.571-4,0Z"/><path class="b" d="M100.017,67.765a8.5,8.5,0,0,0-11.263.033c-3.2,2.94-2.939,8.265-2.4,12.2a25.884,25.884,0,0,0,4.8,12.083C93.661,95.355,97.315,97.9,101.6,97c2.517-.532,1.452-4.389-1.064-3.857-2.56.542-4.935-1.716-6.326-3.613a22.421,22.421,0,0,1-3.7-8.811,22.966,22.966,0,0,1-.434-4.7,10.194,10.194,0,0,1,.627-4.244c1.141-2.388,4.546-2.806,6.485-1.176,1.958,1.647,4.8-1.169,2.829-2.828Z"/><path class="b" d="M97.755,85.326a61.249,61.249,0,0,0,5.013,18.775,45.732,45.732,0,0,0,16.377,18.686,30.636,30.636,0,0,0,12,4.685,2.064,2.064,0,0,0,2.46-1.4,2.016,2.016,0,0,0-1.4-2.461c-7.271-1.086-13.442-5.275-18.424-10.521a43.187,43.187,0,0,1-10.45-19.2,67.993,67.993,0,0,1-1.582-8.563,2.063,2.063,0,0,0-2-2,2.012,2.012,0,0,0-2,2Z"/><path class="b" d="M137.055,269.012a11.733,11.733,0,0,0-9.627-1.72,2,2,0,1,0,1.063,3.857c.169-.043.338-.084.509-.119.116-.024.427-.02.515-.09q-.474.061-.142.023c.086-.009.173-.016.26-.023.174-.013.348-.022.522-.025q.458-.011.914.024a2.085,2.085,0,0,0,.521.052q-.474-.066-.144-.015c.086.014.172.03.258.047a9.818,9.818,0,0,1,1.014.253c.15.047.819.186.861.31-.277-.118-.316-.133-.119-.045l.236.113c.156.078.31.159.462.245a9.867,9.867,0,0,1,.878.566,2.009,2.009,0,0,0,2.737-.717,2.054,2.054,0,0,0-.718-2.736Z"/><path class="b" d="M134.235,291.088c-13.69-3.231-28.666-4-42.39-.566-2.5.624-1.439,4.483,1.063,3.857,13.023-3.26,27.275-2.5,40.264.566,2.5.591,3.572-3.265,1.063-3.857Z"/><path class="b" d="M134.756,280.612c-5.092-2.5-11.21-2.993-16.787-3.293a90.549,90.549,0,0,0-20.643,1.129,2.017,2.017,0,0,0-1.4,2.46,2.046,2.046,0,0,0,2.461,1.4,85.685,85.685,0,0,1,19.2-1c4.92.246,10.845.658,15.142,2.766,2.3,1.129,4.333-2.319,2.019-3.454Z"/><path class="b" d="M76.5,138.4a18.294,18.294,0,0,1,4.455-2.224c2.638-1.053,5.325-1.984,8.015-2.9,5.881-1.992,11.815-3.824,17.7-5.807,2.3-.776,4.625-1.553,6.845-2.555a2.015,2.015,0,0,0,.717-2.736,2.048,2.048,0,0,0-2.736-.718c-.171.077-.535.233-.139.067-.188.079-.378.156-.568.231-.438.175-.879.341-1.321.5-1.126.416-2.261.808-3.4,1.193-2.82.957-5.655,1.868-8.487,2.784-5.784,1.872-11.609,3.685-17.271,5.908a23.768,23.768,0,0,0-5.832,2.795,2.065,2.065,0,0,0-.717,2.736,2.012,2.012,0,0,0,2.736.717Z"/><path class="b" d="M169.178,125.712c6.342.959,12.5,3.272,18.36,5.816a148.874,148.874,0,0,1,17.106,8.725c1.145.685,2.279,1.389,3.388,2.132.42.282.836.569,1.246.866.1.07.613.457.447.329-.186-.144.264.215.348.284,1.965,1.636,4.81-1.179,2.829-2.828-3.8-3.163-8.332-5.55-12.685-7.841a141.421,141.421,0,0,0-19.429-8.581,59.351,59.351,0,0,0-10.547-2.759,2.065,2.065,0,0,0-2.46,1.4,2.015,2.015,0,0,0,1.4,2.46Z"/><path class="b" d="M157.72,44.439c1.434,3.646,2.795,7.336,4.488,10.873a37.854,37.854,0,0,0,4.627,6.968c4.2,5.347,9.726,11.52,16.676,13.01,2.51.538,3.583-3.317,1.063-3.857a18.588,18.588,0,0,1-8.217-4.708,55.709,55.709,0,0,1-6.694-7.274,33.419,33.419,0,0,1-4-6.158c-1.544-3.225-2.777-6.593-4.085-9.917a2.059,2.059,0,0,0-2.46-1.4,2.015,2.015,0,0,0-1.4,2.46Z"/><path class="b" d="M158.066,42.147a63.461,63.461,0,0,1-19.339,13.4,50.93,50.93,0,0,1-5.989,2.1c-.961.272-1.93.5-2.9.735q-.726.147-.242.065a1.169,1.169,0,0,1,.795.35.888.888,0,0,1,.251.386q-.071-.327-.012.009c.139-.519.034-1.1.128-1.606.124-.674.283-1.34.447-2.005.355-1.438.777-2.865,1.021-4.328.25-1.5-1.379-3.415-2.938-2.258-10.114,7.505-20.408,14.774-30.7,22.032C96.5,72.5,98.5,75.968,100.608,74.48c10.292-7.258,20.586-14.527,30.7-22.032l-2.938-2.259c-.444,2.66-1.429,5.206-1.7,7.9a4.33,4.33,0,0,0,.808,3.434c1.015,1.089,2.3.97,3.633.666a57.238,57.238,0,0,0,20.516-9.38,80.068,80.068,0,0,0,9.266-7.834c1.843-1.8-.986-4.631-2.829-2.829Z"/><path class="b" d="M166.887,4.5A67.647,67.647,0,0,0,140.8.023a62.906,62.906,0,0,0-26.921,7.166,47.1,47.1,0,0,0-15.79,12.5,57.366,57.366,0,0,0-9.664,19.326A96.951,96.951,0,0,0,85.01,69.6c.085,2.568,4.085,2.579,4,0C88.5,54.019,90.624,37.175,99.765,24.086a41.127,41.127,0,0,1,13.5-12.013,59.613,59.613,0,0,1,24.226-7.859A63.35,63.35,0,0,1,165.823,8.36a2.016,2.016,0,0,0,2.461-1.4,2.045,2.045,0,0,0-1.4-2.46Z"/><path class="b" d="M198.863,69.6a102.188,102.188,0,0,0,.041-14.01,83.852,83.852,0,0,0-1.285-12.205c-1.864-9.374-5.936-18.733-12.321-25.921-1.7-1.915-3.633-3.632-5.492-5.392a26.348,26.348,0,0,0-5.87-4.249c-2.276-1.2-4.3,2.254-2.019,3.454,3.634,1.912,6.6,4.9,9.447,7.825a43.036,43.036,0,0,1,7.457,10.814,57.374,57.374,0,0,1,4.652,13.164,69.87,69.87,0,0,1,1.378,11.5,105.943,105.943,0,0,1,.012,15.023c-.225,2.564,3.776,2.549,4,0Z"/><path class="b" d="M86.205,131.2a12.12,12.12,0,0,1-3.193-5.912,20.775,20.775,0,0,1,.076-5.791,71.057,71.057,0,0,1,2.17-12.44A104.25,104.25,0,0,0,88.444,86.7c.411-5.687.562-11.39.567-17.09,0-2.574-4-2.578-4,0a180.932,180.932,0,0,1-1.725,27.759,85.192,85.192,0,0,1-1.97,8.941A78.663,78.663,0,0,0,79.088,119.5a22.483,22.483,0,0,0,.151,7.235,16.292,16.292,0,0,0,4.138,7.3c1.766,1.88,4.591-.953,2.828-2.829Z"/><path class="b" d="M194.861,69.605a130.935,130.935,0,0,0,3.4,29.111q1.017,4.155,2.413,8.2c1.382,4.019,2.827,7.972,3.161,12.249a12.882,12.882,0,0,1-1.179,7.495,16.243,16.243,0,0,1-5.568,5.955c-2.155,1.392-.152,4.856,2.019,3.454,4.25-2.746,7.892-7.1,8.675-12.23.823-5.393-.821-11.186-2.625-16.214a102.141,102.141,0,0,1-4.828-19.035,139.173,139.173,0,0,1-1.471-18.988c-.04-2.572-4.04-2.579-4,0Z"/><path class="c" d="M89.493,223.571c6.776-.367,13.238.34,18.446,5.65,3.074,3.133,8.917,8.126,9.348,13.114.172,1.985-1.119,5.058-3.307,6.01l-6.029,13.144c1.537,1.7,1.685,2.951.8,3.983a4.7,4.7,0,0,1-4.473,1.619,8.025,8.025,0,0,1-4.464-2.058c.511,1.325-3.164,2.892-4.1,3.047-3.474.575-5.778-1.111-8.089-3.365.755,3.143-4.02,6.328-7.321,3.821-3.381-2.568-5.8-4.609-7.613-8.1-1.757-3.384-2.376-7-3.408-9.471-1.614-4.157-5.294-7.052-4.68-9.629,1.01-4.788,6.2-10.542,9.128-13.159,3.774-3.378,10.907-4.348,15.766-4.611Z"/><path class="b" d="M104.424,241.141c.747,1.564,12.786,22.576,15.026,26.377l1.707-.679c-3.024-7.459-22.866-51.118-27.547-60.5a2.277,2.277,0,0,0-2.836-1.116c-.28.1-.563.213-.845.321a2.178,2.178,0,0,0-1.211,2.929c2.344,5.191,5.408,12.214,8.373,17.465,2.5,4.426,5.252,10.556,7.333,15.207"/><path class="b" d="M102.7,242.151c1.42,2.924,3.177,5.72,4.783,8.543q3.744,6.581,7.523,13.141c.9,1.566,1.8,3.135,2.72,4.692a2.019,2.019,0,0,0,2.259.92l1.707-.679c.911-.363,1.839-1.372,1.4-2.46-4.7-11.558-10.089-22.865-15.269-34.21q-4.471-9.794-9.024-19.55c-1-2.127-2-4.253-3.032-6.363-.865-1.768-2.19-3.155-4.323-3.107-2.757.063-5.393,2.4-4.826,5.287a19.682,19.682,0,0,0,1.663,3.969q.958,2.133,1.931,4.261c1.387,3.015,2.81,6.018,4.383,8.941,2.929,5.442,5.583,10.972,8.108,16.615a2.015,2.015,0,0,0,2.737.717,2.048,2.048,0,0,0,.717-2.736c-2.142-4.787-4.274-9.6-6.781-14.21s-4.8-9.3-6.958-14.09q-.753-1.665-1.5-3.334c-.118-.26-.491-.762-.349-1.074-.058.127.7-.356.874-.346.616.036,1.042,1.479,1.3,2,1.01,2.087,2,4.185,2.98,6.285q8.883,18.974,17.414,38.113,1.959,4.371,3.892,8.756.709,1.615,1.41,3.237.149.346.3.693c.065.151.333.79.085.2.141.336.281.671.418,1.009l1.4-2.46-1.707.678,2.259.92c-4.452-7.56-8.78-15.2-13.081-22.846-.657-1.167-1.359-2.325-1.945-3.531-1.124-2.315-4.575-.29-3.454,2.019Z"/><path class="c" d="M72.687,260.441c1.809,3.486,4.232,5.527,7.613,8.1,3.3,2.507,8.076-.678,7.321-3.821,2.311,2.254,4.615,3.94,8.089,3.365.936-.155,4.611-1.722,4.1-3.047a8.025,8.025,0,0,0,4.464,2.058,4.7,4.7,0,0,0,4.473-1.619c1.029-1.195.668-2.682-1.632-4.827,5.487,2.192,7.928-1.507,7.039-3.75-.565-1.427-5.349-7.974-6-8.963-2.778-4.222-3.407-5.778-5.926-11.26"/><path class="b" d="M89.493,225.571a29.267,29.267,0,0,1,10.349.929c3.379,1.063,5.743,3.228,8.213,5.653,2.372,2.329,4.885,4.718,6.418,7.712,1.174,2.292,1.136,5.473-1.5,6.753-2.316,1.123-.29,4.574,2.018,3.454a8.457,8.457,0,0,0,4.311-7.335c.022-3.182-1.9-6.1-3.8-8.486a78.012,78.012,0,0,0-6.142-6.444,20.723,20.723,0,0,0-8.625-5.218,32.861,32.861,0,0,0-11.235-1.018c-2.561.131-2.577,4.132,0,4Z"/><path class="b" d="M79.872,259.2a35.949,35.949,0,0,0,6.335,6.929,2.161,2.161,0,0,0,1.414.586,2,2,0,0,0,1.414-3.414,32.579,32.579,0,0,1-5.183-5.4l.312.4q-.427-.552-.838-1.118a2.174,2.174,0,0,0-1.2-.92,2.048,2.048,0,0,0-1.541.2,2.021,2.021,0,0,0-.717,2.736Z"/><path class="b" d="M85.625,252.166A107.86,107.86,0,0,0,98.4,266.447a2.042,2.042,0,0,0,2.829,0,2.022,2.022,0,0,0,0-2.828,102.617,102.617,0,0,1-12.145-13.471,2.065,2.065,0,0,0-2.737-.718,2.013,2.013,0,0,0-.717,2.736Z"/><path class="b" d="M92.983,245.756A149.055,149.055,0,0,0,106.537,262.9a2,2,0,1,0,2.828-2.828,141.35,141.35,0,0,1-12.928-16.338,2.05,2.05,0,0,0-2.737-.717,2.018,2.018,0,0,0-.717,2.736Z"/><path class="b" d="M89.493,221.571c-5.377.305-11.548,1.016-16.03,4.278a30.751,30.751,0,0,0-5.384,5.359,29.366,29.366,0,0,0-4.7,7.411,8.78,8.78,0,0,0-.846,3.412A7.362,7.362,0,0,0,63.7,245.5c1.361,2.329,3.1,4.36,4.012,6.94,1.09,3.087,1.792,6.269,3.344,9.184a22.143,22.143,0,0,0,5.62,6.591c2.564,2.11,5.193,4.113,8.666,2.789,2.841-1.085,4.8-3.723,4.213-6.82l-3.343,1.946c2.73,2.635,6.13,4.784,10.1,3.866,2.384-.551,6.193-2.512,5.431-5.494L98.4,266.447c2.862,2.265,7.032,3.917,10.414,1.619a4.962,4.962,0,0,0,2.482-4.052c-.044-1.93-1.448-3.522-2.762-4.783l-1.946,3.343c2.707,1.023,6.115,1.168,8.262-1.1a5.118,5.118,0,0,0,.852-5.969c-1.971-3.807-4.953-7.08-7.189-10.736a85.71,85.71,0,0,1-4.553-9.1,2.015,2.015,0,0,0-2.736-.717,2.047,2.047,0,0,0-.718,2.736,88.066,88.066,0,0,0,4.385,8.828c1.258,2.087,2.683,4.047,4.08,6.042.772,1.1,1.541,2.208,2.276,3.335.276.422.552.846.8,1.282.1.176.207.351.292.536.057.122-.115-.082-.009-.017-.087-.053-.006.462.034.137-.011.088-.232.737-.113.456a1.272,1.272,0,0,1-.612.687c-1.15.7-2.761.213-3.99-.251-1.913-.724-3.318,2.025-1.946,3.342a5.913,5.913,0,0,1,1.588,1.983c.066.212-.076.2.044.016a2.652,2.652,0,0,1-1.047.862c-1.7.771-3.743-.257-5.062-1.3-1.493-1.181-3.876-.14-3.343,1.946a.8.8,0,0,1,.115-.746c.138-.21.148-.245.028-.1a1.873,1.873,0,0,0-.264.254,10.558,10.558,0,0,1-1.216.7,4.724,4.724,0,0,1-1.841.514c-2.335.112-4.08-1.351-5.668-2.883a2.017,2.017,0,0,0-3.342,1.946c.261,1.372-1.9,2.3-2.982,2.184a4.832,4.832,0,0,1-2.3-1.313,34.465,34.465,0,0,1-2.84-2.447,17.222,17.222,0,0,1-4.046-6.219c-.883-2.3-1.4-4.726-2.318-7.014a38.024,38.024,0,0,0-3.646-6.294c-1.138-1.776-1.22-2.383-.388-4.3a29.375,29.375,0,0,1,8.207-10.454c3.747-3.037,9.482-3.555,14.112-3.817,2.56-.145,2.576-4.146,0-4Z"/><path class="c" d="M207.09,261.231c.844-.728,1.656-1.445,2.4-2.114,3.834-3.463,8.069-5.843,9.438-10.89a17.239,17.239,0,0,0-.513-11.332c-.788-2.177-2.579-5.718-4.111-7.111-2.022-1.84-5.077-4.4-8.074-5.037-3.276-.8-11.407,1.222-14.963,1.037-5.1-.266-8.688,1.536-13.481,3.629-4.448,1.942-8.89,3.519-13.334,5.741a3.026,3.026,0,0,0-.518,4.667c2.108,1.888,6.889.555,10,.555l2.421.294c-3.9,2.843-8.745,6.4-10.273,7.928-1.964,1.969-4.273,3.686-4.074,5.778.381,4,4.074,3.63,5.482,2.889l.124-.066-.865,1.1c-1.782,2.27-2.222,5.037-.188,6.249a8.006,8.006,0,0,0,7.86-.895c-1.386,1.857-1.21,4.033.415,4.966a7.651,7.651,0,0,0,5.527.3,32.5,32.5,0,0,0,5.637-3c1.753-.985,9.267-5.468,13.024-8.166l-.423.4c-2.037,1.926-5.151,4.625-6.3,6.444a2.393,2.393,0,0,0,1.63,3.778,5.48,5.48,0,0,0,4.148-.315C199.94,267.14,203.759,264.1,207.09,261.231Z"/><path class="b" d="M173.932,238.376c-1.978.026-3.932.4-5.909.452-.855.02-3,.164-2.972-1.132.016-.749.448-.838,1.075-1.143,1.244-.6,2.506-1.172,3.777-1.716,2.506-1.073,5.047-2.061,7.556-3.124,4.157-1.761,8.29-3.985,12.922-3.955a89.873,89.873,0,0,0,10.487-.97,22.531,22.531,0,0,1,4.421-.194,12.168,12.168,0,0,1,5.593,2.875,14.493,14.493,0,0,1,3.747,4.093,23.745,23.745,0,0,1,2.429,5.647c1.113,4.032.726,8.89-2.01,12.219a30.84,30.84,0,0,1-4.363,4.059c-1.637,1.348-3.206,2.769-4.809,4.156-1.73,1.5-3.485,2.977-5.31,4.357-1.242.939-2.86,2.435-4.477,2.629-.447.053-2.075.022-2.234-.517-.136-.461.706-1.225.984-1.538,1.594-1.794,3.429-3.364,5.174-5.006,1.878-1.768-.954-4.592-2.829-2.828a71.262,71.262,0,0,0-5.4,5.26c-1.653,1.926-2.822,4.519-.934,6.748,1.566,1.849,4.687,2.281,6.912,1.587a17.848,17.848,0,0,0,5.235-3.2c3.977-3.049,7.675-6.434,11.514-9.65a21.8,21.8,0,0,0,4.909-5.36,17.515,17.515,0,0,0,2.18-7.679c.377-5.13-1.7-10.752-4.792-14.815a22.032,22.032,0,0,0-5.876-5.009,12.585,12.585,0,0,0-6.571-2.064c-4.175-.039-8.259,1.194-12.426,1.233a26.955,26.955,0,0,0-7.493.82,67.667,67.667,0,0,0-7.893,3.169c-3.315,1.437-6.7,2.712-10,4.181-2.66,1.184-5.513,2.363-5.491,5.755.043,6.833,8.676,4.712,12.871,4.657,2.572-.033,2.579-4.034,0-4Z"/><path class="b" d="M184.9,242.484c.451-.349-.426.319-.573.429q-.541.4-1.087.8-1.2.878-2.412,1.742-2.655,1.9-5.326,3.779a107.5,107.5,0,0,0-10.173,7.654c-1.917,1.726.919,4.548,2.828,2.828a103.122,103.122,0,0,1,9.74-7.293c3.3-2.331,6.636-4.634,9.832-7.111a2.01,2.01,0,0,0,0-2.828,2.052,2.052,0,0,0-2.829,0Z"/><path class="b" d="M198.888,255.369c-.449.365-1.442,1.066-2.2,1.58-1.082.734-2.181,1.445-3.285,2.145q-3.162,2.007-6.384,3.915a57.775,57.775,0,0,1-6.45,3.7,6.157,6.157,0,0,1-4.243.383c-1.295-.434-.807-1.522-.18-2.43,1.109-1.608-1.123-3.9-2.737-2.736a6.124,6.124,0,0,1-5.832.921c.236.109.022.029-.064-.063a1.094,1.094,0,0,1-.275-.348,1.733,1.733,0,0,1,.048-.908,7.474,7.474,0,0,1,1.741-2.917c1.352-1.724-.291-4.264-2.424-3.142-.47.248.113.011-.25.11-.071.02-.78.174-.414.125a1.937,1.937,0,0,1-1.15-.069.868.868,0,0,1-.58-.526,1.722,1.722,0,0,1,0-1.616c.734-1.447,2.433-2.7,3.6-3.784.752-.695,1.559-1.332,2.365-1.963,4.085-3.2,8.417-6.079,12.5-9.288a2.011,2.011,0,0,0,0-2.828,2.05,2.05,0,0,0-2.829,0c-.24.188.324-.243-.093.071l-.413.312q-.636.476-1.277.944-1.47,1.08-2.944,2.15c-2.224,1.623-4.448,3.247-6.63,4.927-3.882,2.989-11.74,8.549-7.11,13.947,1.789,2.087,4.948,2.153,7.249.942l-2.424-3.141a12.243,12.243,0,0,0-2.842,5.016,5.026,5.026,0,0,0,1.92,5.294c2.88,1.987,7.48,1.209,10.152-.713l-2.736-2.736a5.69,5.69,0,0,0-.64,5.879,5.882,5.882,0,0,0,4.824,2.714c4.055.434,7.307-1.962,10.638-3.882a107.45,107.45,0,0,0,14.2-9.159,2.014,2.014,0,0,0,0-2.829,2.048,2.048,0,0,0-2.829,0Z"/><path class="b" d="M192.182,248.723c-3.45,2.147-6.863,4.355-10.176,6.71a89.227,89.227,0,0,0-8.748,6.492c-1.9,1.742.933,4.565,2.829,2.828a33.1,33.1,0,0,1,3.522-2.7c1.584-1.1,3.13-2.256,4.7-3.37,3.222-2.278,6.537-4.42,9.887-6.505,2.181-1.357.175-4.819-2.019-3.454Z"/><path class="b" d="M133.115,112.177c2.441,2.389,6.306,3.084,9.582,3.082s7.142-.692,9.584-3.082c1.843-1.8-.986-4.631-2.828-2.829-.081.079-.493.429-.236.225s-.014.009-.08.051c-.11.071-.217.146-.329.215-.212.13-.43.249-.652.361-.149.075-.3.146-.454.213.272-.119.03-.014-.113.037a13.992,13.992,0,0,1-4.892.809,13.6,13.6,0,0,1-4.805-.776c-.034-.012-.6-.245-.2-.07q-.192-.084-.381-.177c-.247-.122-.489-.253-.723-.4-.178-.109-.343-.249-.523-.354.512.3.028.01-.121-.136-1.84-1.8-4.671,1.024-2.828,2.829Z"/><path class="b" d="M142.175,94.183a39.034,39.034,0,0,1,.919,4.207l-.071-.532a2.565,2.565,0,0,1,.015.581l.072-.532a1.463,1.463,0,0,1-.064.261l.2-.478a.983.983,0,0,1-.093.168l.313-.405a.881.881,0,0,1-.137.136l.405-.313a2.66,2.66,0,0,1-.334.176l.478-.2a2.491,2.491,0,0,1-.561.164l.531-.072a2.212,2.212,0,0,1-.527,0l.532.072c-.2-.028-.394-.076-.593-.1a2.211,2.211,0,0,0-1.541.2,2,2,0,0,0-.717,2.736,1.913,1.913,0,0,0,1.2.919c.438.059.864.171,1.31.191a4.156,4.156,0,0,0,1.912-.453,2.723,2.723,0,0,0,1.522-1.8,4.6,4.6,0,0,0-.02-1.958c-.229-1.355-.543-2.7-.891-4.027a2,2,0,0,0-3.857,1.063Z"/><path class="b" d="M119.9,82.8c-.7,2.283-.245,7.534,4.08,7.981,5.716-.034,6.02-6.383,4.1-9.368C126.505,78.971,121.872,77.954,119.9,82.8Z"/><path class="b" d="M164.7,82.8c.7,2.283.245,7.535-4.079,7.981-5.716-.034-6.021-6.383-4.1-9.368C158.1,78.971,162.729,77.954,164.7,82.8Z"/></svg>