<?xml version="1.0" encoding="UTF-8"?>
<svg xmlns="http://www.w3.org/2000/svg" id="a" viewBox="0 0 865.76 682.89">
  <g>
    <g id="b">
      <path d="M276.51,33.32c142.09-27.6,239.39,84.91,274.86,124.02l106.83,117.85c32.35,35.69,65.59,72.98,76.3,116.81,13.3,54.38,5.65,148.23-39.74,188.91-45.4,40.68-109.14,64.89-174.67,75.22-65.53,10.33-133.1,7.21-199.15-.35-38.22-4.33-76.6-10.43-111.72-23.72-35.11-13.3-67-34.52-84.41-63.13-20.92-34.41-18.91-75.39-9.99-113.23,8.91-37.84,24.17-74.74,28.38-113.15,3.71-33.28-65.67-270.55,133.31-309.23Z" fill="#0071f2"></path>
      <g opacity=".8">
        <path d="M276.51,33.32c142.09-27.6,239.39,84.91,274.86,124.02l106.83,117.85c32.35,35.69,65.59,72.98,76.3,116.81,13.3,54.38,5.65,148.23-39.74,188.91-45.4,40.68-109.14,64.89-174.67,75.22-65.53,10.33-133.1,7.21-199.15-.35-38.22-4.33-76.6-10.43-111.72-23.72-35.11-13.3-67-34.52-84.41-63.13-20.92-34.41-18.91-75.39-9.99-113.23,8.91-37.84,24.17-74.74,28.38-113.15,3.71-33.28-65.67-270.55,133.31-309.23Z" fill="#fff"></path>
      </g>
    </g>
    <g>
      <rect x="287.19" y="325.21" width="35.59" height="5.26" fill="#0071f2"></rect>
      <g>
        <rect x="331.28" y="331.19" width="38.43" height="4.95" fill="#fff"></rect>
        <path d="M370.21,336.64h-39.43v-5.95h39.43v5.95Zm-38.43-1h37.43v-3.95h-37.43v3.95Z" fill="#0071f2"></path>
      </g>
      <g>
        <rect x="279.3" y="330.71" width="39.41" height="10.03" fill="#fff"></rect>
        <path d="M319.22,341.24h-40.41v-11.03h40.41v11.03Zm-39.41-1h38.41v-9.03h-38.41v9.03Z" fill="#2f2e41"></path>
      </g>
      <rect x="370.97" y="340.02" width="1" height="288.51" transform="translate(-30.03 24.59) rotate(-3.64)" fill="#0071f2"></rect>
      <path d="M475.67,624.24h-.02c-.28,0-.49-.24-.48-.52,.27-8.96,17.28-15.87,50.56-20.54,1.27-.18,2.37-.33,2.54-.39,.05-.03,.06-.02,.12-.03,21.62-2.65,23.66-22.55,23.68-22.75,3.59-22.01-1.31-59.13-1.36-59.5-1.14-15.34-3.59-28.28-7.29-38.47-4.35-11.99-14.94-20.75-27.65-22.89-17.48-2.93-22.88-12.52-23.1-12.93-.13-.24-.04-.55,.2-.68,.24-.13,.55-.04,.68,.2,.05,.1,5.43,9.57,22.39,12.42,13.06,2.19,23.95,11.21,28.42,23.53,3.73,10.28,6.2,23.3,7.34,38.71,.05,.34,4.97,37.61,1.36,59.73-.01,.17-2.11,20.84-24.5,23.62-.24,.07-.81,.16-2.69,.42-40.76,5.72-49.53,13.81-49.7,19.58,0,.27-.23,.48-.5,.48Z" fill="#2f2e41"></path>
      <path d="M649.91,620.14c-.27,0-.49-.21-.5-.48-.17-5.77-8.94-13.86-49.7-19.58-1.88-.26-2.45-.35-2.69-.42-22.39-2.77-24.49-23.44-24.5-23.65-3.61-22.08,1.32-59.35,1.37-59.72,1.14-15.37,3.61-28.4,7.34-38.68,4.47-12.32,15.36-21.34,28.42-23.53,16.96-2.85,22.34-12.32,22.39-12.42,.02-.04,.05-.08,.09-.12,.02-.02,2.13-2.18,2.22-7.67,0-.27,.23-.49,.5-.49h0c.28,0,.5,.23,.49,.51-.09,5.5-2.09,7.91-2.46,8.31-.52,.91-6.11,10.02-23.07,12.87-12.71,2.13-23.3,10.9-27.65,22.89-3.7,10.2-6.15,23.13-7.29,38.44-.05,.4-4.96,37.52-1.37,59.49,.02,.24,2.06,20.14,23.68,22.79,.06,0,.11,.02,.16,.05,.13,.03,1.23,.19,2.5,.37,33.28,4.67,50.29,11.58,50.56,20.54,0,.28-.21,.51-.49,.52h-.01Z" fill="#2f2e41"></path>
      <g>
        <circle cx="649.69" cy="625.98" r="7.64" fill="#fff"></circle>
        <path d="M649.69,634.12c-4.49,0-8.14-3.65-8.14-8.14s3.65-8.14,8.14-8.14,8.14,3.65,8.14,8.14-3.65,8.14-8.14,8.14Zm0-15.28c-3.94,0-7.14,3.2-7.14,7.14s3.2,7.14,7.14,7.14,7.14-3.2,7.14-7.14-3.2-7.14-7.14-7.14Z" fill="#0071f2"></path>
      </g>
      <g>
        <circle cx="475.05" cy="626.25" r="7.64" fill="#fff"></circle>
        <path d="M475.05,634.39c-4.49,0-8.14-3.65-8.14-8.14s3.65-8.14,8.14-8.14,8.14,3.65,8.14,8.14-3.65,8.14-8.14,8.14Zm0-15.28c-3.94,0-7.14,3.2-7.14,7.14s3.2,7.14,7.14,7.14,7.14-3.2,7.14-7.14-3.2-7.14-7.14-7.14Z" fill="#0071f2"></path>
      </g>
      <path d="M419.7,567.31l4.55,19.11s28.67,2.73,40.95-4.55l-6.88-24.52-38.63,9.96Z" fill="#f9b499"></path>
      <path d="M350.74,552.03l-9.76,23.02s27.76,4.55,37.77,14.11l8.65-22.75-36.65-14.38Z" fill="#f9b499"></path>
      <path d="M269.09,600.07s.46,5.01,14.56,10.47l54.6,18.2s33.67,8.65,36.4,2.73l-1.82-7.28-36.86-7.74-31.85-11.83-22.3-7.74s-12.29-2.73-12.74,3.19Z" fill="#2f2e41"></path>
      <path d="M376.48,597.8l-.91,25.48c-9.24-6.04-27.07-7.64-34.45-8.05-2.32-.13-4.61-.6-6.79-1.39l-42.03-15.13c-14.62-6.21-20.19-4.21-20.47-4.1,0,0,0,0,0,0,5.46-5.92,20.02-3.64,20.02-3.64,24.57,.46,45.05-10.01,45.05-10.01h2.73l12.74,7.28,24.12,9.56Z" fill="#0071f2"></path>
      <g opacity=".3">
        <path d="M376.48,597.8l-.91,25.48c-9.24-6.04-27.07-7.64-34.45-8.05-2.32-.13-4.61-.6-6.79-1.39l-42.03-15.13c-14.62-6.21-20.19-4.21-20.47-4.1,0,0,0,0,0,0,5.46-5.92,20.02-3.64,20.02-3.64,24.57,.46,45.05-10.01,45.05-10.01h2.73l12.74,7.28,24.12,9.56Z" fill="#fff"></path>
      </g>
      <g>
        <path d="M375.57,623.28l-.91,8.19c-4.55-8.19-34.58-11.83-34.58-11.83,0,0-54.15-19.11-54.6-19.57-15.02-5.92-16.38,0-16.38,0-.46-3.19,2.73-5.46,2.73-5.46,0,0,0,0,0,0,.28-.11,5.84-2.11,20.47,4.1l42.03,15.13c2.19,.79,4.47,1.26,6.79,1.39,7.38,.41,25.21,2.02,34.45,8.05Z" fill="#fff"></path>
        <path d="M374.98,633.08l-.76-1.37c-4.38-7.88-33.91-11.54-34.21-11.58l-.11-.02c-23.8-8.4-52.09-18.44-54.62-19.59v.02c-8.37-3.3-12.34-2.86-14.19-1.92-1.28,.65-1.52,1.53-1.53,1.57l-.62,2.42-.36-2.47c-.48-3.38,2.67-5.75,2.92-5.93l.12-.1h.11c.95-.33,6.72-1.82,20.75,4.14l42.01,15.12c2.17,.78,4.4,1.24,6.65,1.36,7.32,.41,25.35,2.03,34.69,8.13l.26,.17-1.12,10.05Zm-34.79-13.93c1.77,.22,27.74,3.53,34.12,10.96l.73-6.58c-9.22-5.84-26.77-7.4-33.94-7.81-2.35-.13-4.68-.61-6.93-1.42l-42.03-15.13c-13.75-5.83-19.31-4.37-20.04-4.13l-.09,.06c-.42,.33-1.83,1.56-2.29,3.25,.24-.21,.53-.41,.88-.59,2.03-1.07,6.29-1.61,15.07,1.84l.12,.06c1.8,.86,39.75,14.3,54.41,19.48Z" fill="#2f2e41"></path>
      </g>
      <g>
        <path d="M545.99,221.97s18.2-28.67,85.55-20.02c0,0,56.88,5.46,60.06,126.04,0,0,9.1,91.92-65.07,108.3,0,0-77.55,19.11-162.09,8.42l-32.67-5.23,30.32-95.98s82.98-123.8,83.89-121.53Z" fill="#fff"></path>
        <path d="M517.81,448.43c-17.03,0-35.09-.91-53.43-3.23l-33.25-5.33,.17-.55,30.35-96.05,.04-.06c.2-.3,20.64-30.8,41.09-60.87,36.52-53.71,41.75-60.11,42.91-60.83,.81-1.17,5.63-7.64,17.61-13.26,11.89-5.58,33.4-11.29,68.3-6.81,.13,.01,14.57,1.57,29.15,17.97,13.39,15.06,29.7,46.12,31.35,108.56,.02,.19,2.2,23.32-4.74,48.15-6.42,22.97-22.17,52.13-60.72,60.65-.6,.15-48.18,11.65-108.83,11.65Zm-85.38-9.36l32.09,5.14c83.46,10.55,161.12-8.22,161.89-8.41,38.07-8.41,53.63-37.22,59.98-59.91,6.9-24.65,4.74-47.62,4.71-47.85-1.64-62.1-17.78-92.94-31.04-107.88-14.32-16.15-28.44-17.7-28.58-17.71-66.21-8.5-84.9,19.51-85.08,19.79l-.52,.82-.13-.34c-5.78,6.05-61.55,88.69-83.2,120.99l-30.13,95.36Z" fill="#2f2e41"></path>
      </g>
      <path d="M574.73,367.99l-30.64,3.2c-43.74,4.88-51.37,8.69-51.37,8.69-20.58,5.79-22.86,23.13-22.86,23.13l-12.84,.95,35.95,144.7-73.26,18.66-14.11-55.06-18.2,54.15-63.7-25.03,42.41-159.15c1.56-5.86,5.45-10.83,10.76-13.77,25.09-13.88,89.01-26.66,90.17-28.21h113.76l3.74,9.33c1.99,6.3,2.8,11.89,2.83,16.81,0,0-5.62,1.15-12.63,1.61Z" fill="#2f2e41"></path>
      <path d="M460.34,417.26c-.22,0-.42-.15-.48-.37-.07-.27,.08-.54,.35-.61l8.11-2.23c-.25-3.52-.97-27.44,24.46-34.68,.98-.52,12.36-5.69,85.92-12.23,11.7-1.04,22.58-4.4,32.33-9.98,7.83-4.48,12.5-9,13.87-13.42,.08-.26,.36-.41,.63-.33,.26,.08,.41,.36,.33,.63-1.45,4.68-6.27,9.39-14.33,14-9.88,5.65-20.9,9.05-32.74,10.1-75.25,6.69-85.18,11.91-85.57,12.13-.03,.02-.08,.04-.11,.05-26.58,7.53-23.79,33.78-23.76,34.04,.03,.25-.12,.48-.36,.54l-8.51,2.34s-.09,.02-.13,.02Z" fill="#2f2e41"></path>
      <path d="M482.04,436.76c-.22,0-.42-.14-.48-.36-.06-.2-5.54-19.94,4.45-33.71,6.01-8.3,16.31-12.79,30.6-13.34l83.67-12.28c.36-.04,34.7-4.72,39.16-58.7l3.18-69.15c0-.21,.56-21.73-10.9-33.92-5-5.31-11.57-8.11-19.56-8.34-.28,0-.49-.24-.49-.51,0-.28,.25-.5,.51-.49,8.26,.23,15.08,3.14,20.26,8.65,11.75,12.49,11.17,34.42,11.17,34.64l-3.19,69.17c-2.37,28.63-13.09,43.31-21.68,50.58-9.34,7.91-17.99,9-18.35,9.04l-83.71,12.28c-14.02,.54-24.05,4.89-29.88,12.93-9.7,13.39-4.35,32.66-4.3,32.85,.08,.27-.08,.54-.34,.62-.05,.01-.09,.02-.14,.02Z" fill="#2f2e41"></path>
      <path d="M442.38,286.55c-1.35,.43-3.96,.64-7-2.26,0,0,4.8-4.87,6.62-7.6,0,0,1.54,3.07,1.4,8.48-.02,.63-.43,1.19-1.03,1.38Z" fill="#2f2e41"></path>
      <path d="M442,277s.96,2.85,.96,9.22l13.15-15.59s1.37,5.46,8.19,10.01c0,0,12.74,12.29,13.2,35.49,0,0-1.82,13.65-10.47,24.12l6.72,5.17c3.12,2.4,7.07,3.46,10.98,2.97,6.76-.85,18.38-1.54,29.62,1.41,0,0,29.58,6.83,41.86,6.83l.46-16.38,5.73,.31,3.83,15.16s15.47-2.73,22.75-9.1l-16.38-32.31-4.55-30.49-.46-32.31s5.46-.46,9.56,1.82c0,0-11.38-11.38-16.38-19.57,0,0-15.93-35.95-50.51-40.95l-20.02-4.55s-3.27-4.91-9.82-6.97c-.68-.21-1.4-.29-2.11-.25l-6.73,.4-30.03,14.11-15.02,63.25,6.83,20.93,8.65-2.73Z" fill="#0071f2"></path>
      <g opacity=".3">
        <path d="M442,277s.96,2.85,.96,9.22l13.15-15.59s1.37,5.46,8.19,10.01c0,0,12.74,12.29,13.2,35.49,0,0-1.82,13.65-10.47,24.12l6.72,5.17c3.12,2.4,7.07,3.46,10.98,2.97,6.76-.85,18.38-1.54,29.62,1.41,0,0,29.58,6.83,41.86,6.83l.46-16.38,5.73,.31,3.83,15.16s15.47-2.73,22.75-9.1l-16.38-32.31-4.55-30.49-.46-32.31s5.46-.46,9.56,1.82c0,0-11.38-11.38-16.38-19.57,0,0-15.93-35.95-50.51-40.95l-20.02-4.55s-3.27-4.91-9.82-6.97c-.68-.21-1.4-.29-2.11-.25l-6.73,.4-30.03,14.11-15.02,63.25,6.83,20.93,8.65-2.73Z" fill="#fff"></path>
      </g>
      <rect x="584.14" y="312.04" width="1" height="322.79" transform="translate(-30.12 39.83) rotate(-3.8)" fill="#0071f2"></rect>
      <rect x="101.24" y="472.93" width="322.87" height="1" transform="translate(-228.05 702.19) rotate(-85.97)" fill="#0071f2"></rect>
      <polygon points="270.45 216.02 281.37 292.01 408.78 292.01 408.78 288.37 368.29 288.37 355.54 215.57 270.45 216.02" fill="#0071f2"></polygon>
      <path d="M364.64,289.83c-.26,0-.49-.19-.54-.45l-12.74-71.44c-.05-.3,.14-.58,.44-.63,.3-.05,.58,.14,.63,.44l12.74,71.44c.05,.3-.14,.58-.44,.63-.03,0-.06,0-.1,0Z" fill="#fff"></path>
      <path d="M426.31,203.9c.7-9.16-2.82-17.23-4.23-20.04-.27-.55-.62-1.05-.97-1.55-2.78-3.99,2.48-13.39,2.48-13.39l2.57,8.69s4.75,17.45,24.71,16.41l-6.66,10.64c-.56,.89-.94,1.88-1.13,2.92l-10.64,58.5s6.37,5.46,9.56,10.92c0,0-13.8,21.33-36.2,17.08-3.33-.63-6.17-2.81-7.54-5.91-1.69-3.83-2.64-10.33-.11-21.15,.58-2.48,1.36-4.92,2.28-7.3,3.14-8.08,11.94-29.91,21.02-45.02,1-1.67,1.96-3.37,2.83-5.12l1.03-2.06c.57-1.13,.9-2.37,1-3.63Z" fill="#f9b499"></path>
      <path d="M456.11,271.13c-.14,0-.29-.06-.38-.18-2.33-2.79-3.69-8.61-3.74-8.85-2.23-8.93-7.64-19.34-7.69-19.45-.13-.25-.03-.55,.21-.67,.24-.13,.55-.03,.67,.21,.05,.11,5.51,10.62,7.78,19.68,.02,.07,1.37,5.84,3.54,8.45,.18,.21,.15,.53-.06,.7-.09,.08-.21,.12-.32,.12Z" fill="#fff"></path>
      <path d="M450.65,277.5c-.21,0-.4-.13-.47-.33-4.88-13.76-15.96-20.51-16.07-20.57-.24-.14-.31-.45-.17-.69,.14-.24,.45-.31,.68-.17,.11,.07,11.49,6.98,16.5,21.1,.09,.26-.04,.55-.3,.64-.05,.02-.11,.03-.17,.03Z" fill="#fff"></path>
      <path d="M458.84,244.28c-.17,0-.34-.09-.43-.25-3.89-6.71-10.85-14.85-13.66-18.03-.93-1.05-1.24-2.48-.83-3.82l3.53-11.76c.08-.27,.36-.41,.62-.34,.26,.08,.42,.36,.33,.62l-3.53,11.76c-.3,1.01-.07,2.08,.63,2.87,2.83,3.21,9.84,11.4,13.77,18.2,.14,.24,.06,.54-.18,.68-.08,.05-.17,.07-.25,.07Z" fill="#fff"></path>
      <path d="M445.64,217.43c-.11,0-.22-.04-.32-.11l-3.6-2.96c-.21-.18-.24-.49-.07-.7,.18-.21,.49-.24,.7-.07l3.6,2.96c.21,.18,.24,.49,.07,.7-.1,.12-.24,.18-.39,.18Z" fill="#fff"></path>
      <path d="M480.68,232.91s-.07,0-.1,0c-.27-.05-.45-.32-.39-.59,1.99-9.93,6.32-16.51,8.73-19.55,.63-.8,.63-1.92,0-2.72l-7.26-9.18c-.17-.22-.14-.53,.08-.7,.22-.17,.53-.14,.7,.08l7.26,9.18c.93,1.17,.93,2.8,0,3.96-2.35,2.97-6.59,9.4-8.54,19.12-.05,.24-.26,.4-.49,.4Z" fill="#fff"></path>
      <path d="M487.74,207.74c-.14,0-.27-.06-.37-.17-.18-.2-.17-.52,.04-.71l8.12-7.34-5.74-11.03c-.13-.24-.03-.55,.21-.67,.24-.13,.55-.03,.67,.21l5.92,11.38c.11,.2,.06,.45-.11,.6l-8.41,7.6c-.1,.09-.21,.13-.33,.13Z" fill="#fff"></path>
      <g opacity=".2">
        <path d="M481.13,191s3.12-5.75-.72-9.7c0,0-2.93-.77-8.84,.14,0,0,3.19,8.19,9.56,9.56Z"></path>
      </g>
      <path d="M516.62,228.43c-.27,0-.49-.21-.5-.48-.46-12.2,8.31-29.18,8.69-29.89,.13-.25,.43-.34,.67-.21,.24,.13,.34,.43,.21,.67-.09,.17-9.02,17.46-8.58,29.39,0,.28-.21,.51-.48,.52,0,0-.01,0-.02,0Z" fill="#fff"></path>
      <path d="M543.63,248.43c-.17,0-.33-.07-.44-.22-.18-.24-.14-.58,.1-.76,.11-.08,10.81-8.07,23.31-5.28,.29,.07,.48,.36,.41,.65-.07,.29-.36,.48-.65,.41-11.99-2.69-22.31,5.01-22.41,5.08-.1,.07-.21,.11-.33,.11Z" fill="#fff"></path>
      <path d="M577.15,253.34s5.58,4.99-2.72,12.03l-6.84-13.85s5.92-.46,9.56,1.82Z" fill="#2f2e41"></path>
      <g opacity=".2">
        <path d="M392.82,551.12c-.06,0-.12,0-.18-.03l-65.37-22.34c-.29-.1-.44-.41-.34-.69,.1-.29,.41-.44,.69-.34l65.37,22.34c.29,.1,.44,.41,.34,.69-.08,.23-.29,.37-.52,.37Z"></path>
      </g>
      <g opacity=".2">
        <path d="M372.83,544.07s-.08,0-.12-.01c-.29-.06-.48-.35-.42-.65l20.48-94.07c.06-.29,.36-.48,.65-.42,.29,.06,.48,.35,.42,.65l-20.48,94.07c-.06,.26-.28,.43-.53,.43Z"></path>
      </g>
      <path d="M405.6,512.75c-.23,0-.43-.15-.49-.38-.12-.48-11.87-48.71-14.58-86.08-.29-1.62-7.15-40.9,8.91-49.62,.36-.17,34.17-16.52,71.11-25.08,.27-.06,.54,.11,.6,.37,.06,.27-.11,.54-.37,.6-36.83,8.53-70.54,24.83-70.88,24.99-15.41,8.36-8.44,48.2-8.37,48.61,2.7,37.34,14.44,85.49,14.55,85.97,.07,.27-.1,.54-.37,.6-.04,.01-.08,.01-.12,.01Z" fill="#fff"></path>
      <g opacity=".2">
        <path d="M416.31,555.79c-.24,0-.46-.16-.53-.4-.08-.29,.09-.59,.38-.67l73.55-20.64c.29-.08,.59,.09,.67,.38,.08,.29-.09,.59-.38,.67l-73.55,20.64s-.1,.02-.15,.02Z"></path>
      </g>
      <g>
        <path d="M376.48,597.8l2.28-8.65s-6.83-8.19-37.77-14.11l-4.1,5.92s5.01,5.01-1.37,11.83c0,0-3.64,3.64,8.19,9.1,0,0,14.56,5.92,32.76-4.1Z" fill="#e6e7e8"></path>
        <path d="M354.8,604.1c-6.85,0-11.2-1.71-11.28-1.74-5.53-2.55-8.54-5.07-8.98-7.5-.27-1.5,.59-2.38,.62-2.41,5.94-6.36,1.55-10.93,1.36-11.12l-.29-.29,4.52-6.52,.32,.06c30.76,5.88,37.77,13.94,38.06,14.28l.17,.2-2.4,9.1-.19,.1c-8.39,4.61-16.06,5.86-21.91,5.86Zm-17.29-23.17c1,1.26,4.07,6.1-1.63,12.2-.03,.03-.54,.58-.35,1.57,.23,1.17,1.61,3.61,8.39,6.73,.12,.05,14.45,5.65,32.12-3.98l2.15-8.17c-1.23-1.22-9.45-8.39-36.99-13.7l-3.69,5.33Z" fill="#2f2e41"></path>
      </g>
      <path d="M512.08,172.84c-.24,0-.46-.18-.49-.42-3.55-23.05-18.17-28.22-18.32-28.27-.16-.05-.28-.18-.32-.34-3.51-12.3-11.77-13.9-11.85-13.92-.27-.05-.45-.31-.4-.58,.05-.27,.3-.45,.58-.4,.36,.06,8.85,1.72,12.57,14.39,2.01,.81,15.36,6.97,18.74,28.97,.04,.27-.15,.53-.42,.57-.03,0-.05,0-.08,0Z" fill="#2f2e41"></path>
      <rect x="422.12" y="126.65" width="46.08" height="67.92" rx="23.04" ry="23.04" transform="translate(-27.27 132.81) rotate(-16.47)" fill="#f9b499"></rect>
      <path d="M445.19,194.42s-.04,0-.07,0c-9.18-1.24-16.81-7.78-19.43-16.66l-2.68-9.08c-.08-.26,.07-.54,.34-.62,.26-.08,.54,.07,.62,.34l2.68,9.08c2.51,8.5,9.82,14.77,18.61,15.95,.27,.04,.46,.29,.43,.56-.03,.25-.25,.43-.49,.43Z" fill="#2f2e41"></path>
      <path d="M467.13,153.78s-3.61-.43-7.27-5.52c-.99-1.38-2.29-2.49-3.8-3.27-1.24-.64-2.92-1.68-4.93-3.35s-4.46-2.6-7.04-2.72l-4.23-.19c-.91-.04-1.78-.4-2.45-1.01-2.12-1.92-7.34-5.8-11.53-1.94-1,.92-1.71,2.1-2.13,3.39-1.12,3.44-3.42,13.08-.59,28.15,0,0-26.19-30.94,4.75-41.86,.46,0,11.38-19.11,30.49-8.65,0,0,25.03,3.19,30.49,27.76,.46,.46,23.21,12.29,21.39,48.23l-20.02-4.55s-4.08-5.3-9.91-7.02c-.61-.18-1.25-.24-1.89-.21l-6.85,.4-1.24-3.69s2.15-5.41,.01-13.2l-3.23-10.77" fill="#2f2e41"></path>
      <path d="M470.34,177.75s2.6,11.42,10.79,13.24l-6.37,12.29s-2.73,5.01-1.82,12.29h-16.84s-.91,0-2.28,.91l-7.51-22.46s15.84,2.57,24.02-16.27Z" fill="#f9b499"></path>
      <ellipse cx="447.01" cy="159.6" rx="2.28" ry="3.19" transform="translate(-24.83 108.09) rotate(-13.42)" fill="#2f2e41"></ellipse>
      <ellipse cx="426.53" cy="165.06" rx="2.28" ry="3.19" transform="translate(-26.66 103.49) rotate(-13.42)" fill="#2f2e41"></ellipse>
      <path d="M435.18,178.3c-.11,0-.22-.04-.31-.1-.11-.09-.18-.22-.19-.36l-.91-12.74c-.02-.28,.19-.51,.46-.53,.26-.03,.51,.19,.53,.46l.87,12.19,4.46-.81c.26-.05,.53,.13,.58,.4,.05,.27-.13,.53-.4,.58l-5,.91s-.06,0-.09,0Z" fill="#2f2e41"></path>
      <path d="M436.15,182.12l11.22-2.71c.47-.11,.9,.31,.79,.78-.31,1.35-1,3.77-2.2,5.62s-3.65,2.48-5.59,1.35c-1.31-.76-2.96-2.01-4.58-4.01-.3-.37-.09-.92,.36-1.03Z" fill="#fff"></path>
      <path d="M454.29,151.91c-.08,0-.15-.02-.22-.05-5.24-2.62-10.98-1.34-11.04-1.33-.27,.06-.54-.11-.6-.38-.06-.27,.11-.54,.38-.6,.25-.06,6.15-1.37,11.71,1.41,.25,.12,.35,.42,.22,.67-.09,.18-.26,.28-.45,.28Z" fill="#2f2e41"></path>
      <path d="M421.9,156.65c-.13,0-.27-.05-.36-.16-.19-.2-.18-.52,.02-.71,1.77-1.66,5.06-3.38,5.2-3.45,.24-.13,.55-.03,.67,.21s.03,.55-.21,.67c-.03,.02-3.31,1.73-4.98,3.3-.1,.09-.22,.14-.34,.14Z" fill="#2f2e41"></path>
      <ellipse cx="473.4" cy="157.1" rx="8.87" ry="6.83" transform="translate(284.45 618.71) rotate(-86.1)" fill="#f9b499"></ellipse>
      <path d="M430.77,279.1s-.04,0-.07,0c-.27-.04-.47-.29-.43-.56l1.68-12.52c.04-.27,.29-.47,.56-.43,.27,.04,.47,.29,.43,.56l-1.68,12.52c-.03,.25-.25,.43-.49,.43Z" fill="#2f2e41"></path>
      <path d="M451.5,220.72c.22-1.83,1.02-3.97,3.4-4.85,.61-.22,1.27-.31,1.92-.31h23.86s7.1-1.25,6.49,5.45c-.05,.53-.16,1.04-.29,1.55l-7.16,27.03c-.51,1.93-2.26,3.28-4.26,3.28h-11.98c-1.95,0-3.67-1.28-4.22-3.15l-7.39-24.89c-.4-1.34-.55-2.74-.38-4.12Z" fill="#2f2e41"></path>
      <g>
        <path d="M475.67,623.74l1.37,8.19s-7.28,2.73-32.76,1.82l-54.15-.46s-22.75,1.37-17.29-9.1l29.12,.46,52.33-2.73,15.47-1.37,5.92,3.19Z" fill="#fff"></path>
        <path d="M454.2,634.43c-2.96,0-6.26-.06-9.94-.19l-54.14-.45c-.57,.04-14.65,.82-17.94-4.26-.99-1.53-.92-3.41,.21-5.57l.14-.27,29.43,.46,52.29-2.73,15.6-1.38,6.26,3.37,1.47,8.84-.38,.14c-.26,.1-5.67,2.04-23.02,2.04Zm-64.1-1.64l54.18,.45c21.91,.78,30.38-1.16,32.19-1.67l-1.25-7.52-5.57-3-15.32,1.35-52.35,2.73-28.84-.45c-.83,1.72-.87,3.13-.12,4.29,2.97,4.59,16.93,3.81,17.07,3.8Z" fill="#2f2e41"></path>
      </g>
      <path d="M415.15,595.98l-23.26,17.83c-2.48,1.9-5.31,3.3-8.32,4.14-5.11,1.42-12.66,4.21-10.14,7.79,.66,.94,1.74,1.5,2.88,1.62,9.47,1.02,68.45,6.82,99.36-3.62l-5.01-22.3-13.2-5.46s-33.67-5.01-42.32,0Z" fill="#0071f2"></path>
      <g opacity=".3">
        <path d="M415.15,595.98l-23.26,17.83c-2.48,1.9-5.31,3.3-8.32,4.14-5.11,1.42-12.66,4.21-10.14,7.79,.66,.94,1.74,1.5,2.88,1.62,9.47,1.02,68.45,6.82,99.36-3.62l-5.01-22.3-13.2-5.46s-33.67-5.01-42.32,0Z" fill="#fff"></path>
      </g>
      <g>
        <path d="M470.67,601.44l-5.46-19.57s-9.1,7.28-40.95,4.55l-9.1,9.56s10.66-2.37,19.47,7.97c.94,1.1,1.72,2.33,2.41,3.6,1.86,3.43,9.57,12.6,33.63-6.11Z" fill="#e6e7e8"></path>
        <path d="M446.62,613.34c-.99,0-1.94-.09-2.85-.28-4.24-.89-6.32-3.68-7.18-5.27-.76-1.4-1.53-2.55-2.35-3.52-8.5-9.97-18.88-7.83-18.98-7.8l-1.6,.35,10.39-10.91,.24,.02c31.19,2.67,40.51-4.37,40.6-4.44l.59-.47,5.75,20.61-.26,.21c-9.83,7.65-18.01,11.51-24.35,11.51Zm-28.78-18.08c3.85,0,11,1.12,17.17,8.36,.87,1.02,1.68,2.23,2.47,3.69,.78,1.43,2.65,3.96,6.5,4.77,6.23,1.31,15.26-2.44,26.12-10.83l-5.18-18.57c-2.49,1.53-13,6.59-40.46,4.27l-7.97,8.37c.39-.03,.84-.05,1.36-.05Z" fill="#2f2e41"></path>
      </g>
      <rect x="279.32" y="472.71" width="321.27" height="1.09" transform="translate(-60.28 882.27) rotate(-86.36)" fill="#0071f2"></rect>
      <rect x="272.33" y="340" width="303.28" height="1" fill="#0071f2"></rect>
      <path d="M450.87,194.48c-.25,0-.47-.19-.5-.44-.03-.27,.17-.52,.44-.55,1.29-.15,2.58-.41,3.84-.78,6.41-1.9,11.62-6.5,14.28-12.64,.11-.25,.41-.37,.66-.26,.25,.11,.37,.4,.26,.66-2.79,6.41-8.22,11.22-14.92,13.2-1.31,.39-2.66,.66-4,.82-.02,0-.04,0-.06,0Z" fill="#2f2e41"></path>
      <path d="M473.41,160.04c-.28,0-.5-.22-.5-.5v-5.46c0-.28,.22-.5,.5-.5s.5,.22,.5,.5v5.46c0,.28-.22,.5-.5,.5Z" fill="#2f2e41"></path>
      <rect x="321.09" y="336.14" width="48.62" height="4.08" fill="#2f2e41"></rect>
      <g>
        <g>
          <path d="M98.17,546s0,7.82,1.38,16.11c0,0,9.48-31.02,40.64-27.02l-6.12-13.48-5.06-5.06-14.27,5.52s-13.35,4.14-16.57,23.93Z" fill="#0071f2"></path>
          <path d="M99.41,564.28l-.35-2.1c-1.37-8.23-1.39-16.11-1.39-16.19v-.08c3.24-19.87,16.78-24.29,16.92-24.33l14.54-5.63,5.39,5.44,6.49,14.3-.89-.11c-30.37-3.9-40,26.36-40.1,26.67l-.62,2.03Zm-.74-18.25c0,.56,.06,6.97,1.08,14.09,2.66-6.59,13.54-28.47,39.62-25.64l-5.72-12.59-4.77-4.77-13.96,5.41c-.16,.05-13.11,4.32-16.25,23.51Z" fill="#0071f2"></path>
        </g>
        <path d="M193.95,523.48c-2.05,1.02-4.39,1.3-6.62,.79-7.3-1.69-23.98-8.3-22.89-33.51,0,0,1.85-23.01,18.42-42.34,0,0,2.76,13.81,10.12,24.4,0,0,24.54,38.96,.97,50.66Z" fill="#0071f2"></path>
        <g>
          <path d="M184.74,509.25c-4.91-3.99-10.17-10.69-8.34-20.33,0,0,2.31-26.23,47.42-40.49,0,0-3.69,10.12-6,44.64,0,0-.93,16.07-14.69,20.1-6.37,1.86-13.24,.27-18.39-3.92Z" fill="#fff"></path>
          <path d="M197.72,514.44c-4.72,0-9.43-1.66-13.29-4.81h0c-4.92-4.01-10.4-10.87-8.51-20.81,.02-.22,2.85-26.68,47.76-40.87l.97-.31-.35,.95c-.04,.1-3.69,10.51-5.97,44.5,0,.16-1.11,16.47-15.05,20.54-1.82,.53-3.69,.79-5.55,.79Zm25.33-65.24c-43.34,14.04-46.13,39.5-46.15,39.76-1.8,9.51,3.44,16.06,8.15,19.9h0c5.14,4.18,11.85,5.61,17.94,3.83,13.25-3.88,14.32-19.49,14.33-19.65,1.94-28.92,4.8-40.66,5.73-43.84Z" fill="#0071f2"></path>
        </g>
        <ellipse cx="182.85" cy="578.44" rx="20.25" ry="4.83" fill="#2f2e41"></ellipse>
        <path d="M204.76,633.44h-44.28c-1.38,0-2.76-.27-4.01-.86-9.13-4.33-9.52-18.47-9.52-18.47-1.38-18.87,15.65-28.99,15.65-28.99v-6.67c0,2.67,9.07,4.83,20.25,4.83s20.25-2.16,20.25-4.83v7.13c8.74,5.52,12.89,15.65,12.89,15.65,7.14,19.28-2.33,28.03-6.94,30.99-1.27,.82-2.77,1.23-4.28,1.23Z" fill="#0071f2"></path>
        <path d="M184.39,589.26c-12.39,0-21.85-3.58-21.99-3.63-.28-.11-.42-.42-.31-.71,.11-.28,.43-.42,.71-.31,.2,.08,20.3,7.66,40.12,.46,.29-.1,.6,.04,.7,.33,.1,.28-.04,.6-.33,.7-6.5,2.36-13.02,3.17-18.89,3.17Z" fill="#fff"></path>
        <circle cx="201.72" cy="593.86" r="2.76" fill="#fff"></circle>
        <circle cx="210.01" cy="602.14" r="2.76" fill="#fff"></circle>
        <circle cx="211.39" cy="615.49" r="2.76" fill="#fff"></circle>
        <circle cx="204.02" cy="625.62" r="2.76" fill="#fff"></circle>
        <circle cx="181.47" cy="628.38" r="2.76" fill="#fff"></circle>
        <circle cx="163.98" cy="625.62" r="2.76" fill="#fff"></circle>
        <circle cx="154.32" cy="617.79" r="2.76" fill="#fff"></circle>
        <circle cx="155.7" cy="602.14" r="2.76" fill="#fff"></circle>
        <circle cx="165.82" cy="592.94" r="2.76" fill="#fff"></circle>
        <circle cx="175.03" cy="601.22" r="2.76" fill="#fff"></circle>
        <circle cx="164.44" cy="608.59" r="2.76" fill="#fff"></circle>
        <circle cx="173.65" cy="617.79" r="2.76" fill="#fff"></circle>
        <circle cx="183.77" cy="609.97" r="2.76" fill="#fff"></circle>
        <circle cx="185.61" cy="594.32" r="2.76" fill="#fff"></circle>
        <circle cx="193.9" cy="603.99" r="2.76" fill="#fff"></circle>
        <circle cx="200.34" cy="610.43" r="2.76" fill="#fff"></circle>
        <circle cx="191.14" cy="619.63" r="2.76" fill="#fff"></circle>
        <path d="M187.45,577.79c-.27,0-.49-.22-.5-.49-1.19-51.21,8.26-83,16.4-100.64,8.85-19.18,17.85-26.11,18.23-26.4,.22-.17,.53-.12,.7,.1,.17,.22,.12,.53-.1,.7-.09,.07-9.23,7.12-17.96,26.11-8.07,17.54-17.45,49.16-16.26,100.11,0,.28-.21,.51-.49,.51h-.01Z" fill="#2f2e41"></path>
        <g>
          <path d="M227.95,547.38s-10.95-8.03-19.2-1.99c-2.2,1.61-3.77,3.97-4.46,6.6-1.14,4.37-1.1,12.18,8.48,21.15,0,0,11.05,10.13,15.65,20.71,0,0,21.17-15.19,21.63-35.9,0,0,0-21.17-22.09-10.59Z" fill="#fff"></path>
          <path d="M228.2,594.63l-.25-.57c-4.51-10.36-15.42-20.44-15.53-20.54-9.98-9.36-9.69-17.58-8.62-21.65,.73-2.77,2.38-5.21,4.65-6.88,7.75-5.68,17.84,.66,19.54,1.81,7.11-3.36,12.73-3.79,16.7-1.29,5.78,3.64,5.85,12.1,5.85,12.46-.46,20.73-21.63,36.15-21.84,36.3l-.5,.36Zm-12.38-50.97c-2.29,0-4.63,.57-6.78,2.14-2.09,1.53-3.61,3.78-4.28,6.33-1.23,4.71-.79,12.11,8.33,20.66,.11,.1,10.77,9.95,15.51,20.3,3.17-2.44,20.52-16.67,20.93-35.13,0-.07-.07-8.26-5.39-11.6-3.7-2.33-9.08-1.83-15.99,1.48l-.27,.13-.24-.18c-.08-.06-5.73-4.13-11.83-4.13Z" fill="#0071f2"></path>
        </g>
        <path d="M228.88,592.16s-.05,0-.07,0c-.27-.04-.46-.29-.43-.56,4.92-35.52-1.83-47.88-7.33-54.08-3.98-4.48-10.58-5.8-16.08-3.21-13.95,6.58-17.23,31.14-17.26,31.39-.04,.27-.29,.46-.56,.43-.27-.04-.47-.29-.43-.56,.13-1.03,3.38-25.35,17.83-32.16,5.89-2.78,12.98-1.36,17.25,3.45,5.63,6.35,12.54,18.95,7.57,54.88-.03,.25-.25,.43-.49,.43Z" fill="#2f2e41"></path>
        <g>
          <path d="M98.17,546s13.53-31.28,38.15-13.23c4.76,3.49,10.18,6.02,16,6.99,4.45,.74,10.04,1.05,16.73,.25,0,0-1.13-39.95-36.34-33.51-1.08,.2-2.18,.38-3.27,.55-6.25,.94-31.27,6.73-31.27,38.95Z" fill="#fff"></path>
          <path d="M97.67,548.41v-2.41c0-32.99,26.4-38.65,31.7-39.44,1.08-.16,2.17-.35,3.25-.54,9.87-1.81,18.04-.16,24.27,4.89,11.98,9.7,12.65,28.91,12.66,29.1v.46s-.44,.05-.44,.05c-5.94,.71-11.61,.62-16.87-.25-5.63-.94-11.08-3.32-16.22-7.08-6.67-4.89-13.12-6.54-19.16-4.9-11.73,3.18-18.17,17.77-18.23,17.92l-.96,2.21Zm42.35-42.11c-2.29,0-4.69,.23-7.22,.69-1.09,.2-2.19,.39-3.28,.55-7.06,1.07-29.71,6.81-30.81,36.22,2.26-4.26,8.28-13.84,17.88-16.45,6.36-1.72,13.09-.02,20.02,5.06,5,3.67,10.31,5.99,15.79,6.9,5.02,.84,10.45,.94,16.12,.3-.18-2.94-1.67-19.32-12.27-27.9-4.41-3.57-9.86-5.37-16.24-5.37Z" fill="#0071f2"></path>
        </g>
        <path d="M176.41,577.79s-.01,0-.02,0c-.28-.01-.49-.25-.48-.52,.28-6.37-.95-14.93-2.03-20.98-1.18-6.6-3.34-12.73-6.43-18.23-18.09-32.21-51.1-23.01-51.44-22.91-.26,.08-.54-.08-.62-.34-.08-.27,.08-.54,.34-.62,.34-.1,34.12-9.51,52.59,23.38,3.14,5.6,5.34,11.84,6.54,18.55,1.09,6.11,2.32,14.74,2.04,21.2-.01,.27-.23,.48-.5,.48Z" fill="#2f2e41"></path>
      </g>
      <path d="M469.96,211.88c-.21,0-.4-.13-.47-.33-.05-.14-4.41-12.65,1.93-18.51-1.04-1.3-1.66-2.68-1.87-4.09-.38-2.57,.29-6.32,5.61-9.65,.23-.15,.54-.08,.69,.16,.15,.23,.08,.54-.16,.69-4.86,3.04-5.48,6.38-5.15,8.65,.18,1.23,.74,2.44,1.65,3.6,.57-.42,1.21-.8,1.94-1.12,.07-.03,.74-.25,1.59-.3,1.34-.1,2.24,.85,2.53,1.83,.33,1.12-.1,2.23-1.08,2.78-1.05,.59-2.77,.72-5.1-1.79-5.82,5.41-1.68,17.29-1.63,17.42,.09,.26-.04,.55-.3,.64-.06,.02-.11,.03-.17,.03Zm2.88-18.73c1.5,1.61,2.8,2.14,3.84,1.55,.69-.38,.77-1.09,.61-1.62-.17-.59-.7-1.17-1.51-1.11-.72,.05-1.29,.23-1.3,.24-.61,.27-1.16,.59-1.65,.94Z" fill="#fff"></path>
      <path d="M490.88,243.66s-.05,0-.08,0l-13-1c-.55-.04-.96-.52-.92-1.07,.04-.55,.51-.96,1.07-.92l12.11,.93,3.61-18.93h-9.79c-.55,0-1-.45-1-1s.45-1,1-1h11c.3,0,.58,.13,.77,.36,.19,.23,.27,.53,.21,.82l-4,21c-.09,.47-.51,.81-.98,.81Z" fill="#2f2e41"></path>
      <path d="M489.78,228.31s-2.24-4.48,3.05-7.21c.02-.01,.02-.05-.01-.04-.77,.11-4.31,.4-3.5-3.66l10.47,1.37c-.09,0,8.42,2.15,19.57,11.38l33.22,25.48s4.55-3.64,15.02-4.1l10.89,22.2c1.33,2.7,1.87,5.75,1.42,8.73-.67,4.43-3.61,9.84-13.22,12.3,0,0-20.02,4.1-32.76-14.11-10.36-14.8-20.12-26.9-23.41-30.9-.73-.89-1.84-1.37-2.98-1.3l-12.34,.75c-.79,.05-1.58,.05-2.37-.01-2.79-.2-8.09-1.03-3.95-4.49,0,0-5.46-5.46,0-8.65,0,0-2.73-4.1,.91-7.74Z" fill="#f9b499"></path>
      <path d="M568.5,269.76c-.12,0-.24-.04-.33-.12l-14.87-13.13c-.21-.18-.23-.5-.04-.71s.5-.23,.71-.04l14.87,13.13c.21,.18,.23,.5,.04,.71-.1,.11-.24,.17-.38,.17Z" fill="#2f2e41"></path>
      <path d="M502.5,223.71c-1.84,0-3.32-.83-3.41-.88-4.5-2.46-5.93-1.41-5.94-1.4-.21,.17-.53,.14-.7-.06-.17-.2-.16-.5,.03-.69,.18-.17,1.92-1.55,7.09,1.27,.04,.02,2.97,1.65,5.4,.02,.23-.15,.54-.09,.69,.14,.15,.23,.09,.54-.14,.69-1.01,.67-2.07,.9-3.03,.9Z" fill="#2f2e41"></path>
      <path d="M497.97,230.63s-.07,0-.11-.01l-8.19-1.82c-.27-.06-.44-.33-.38-.6,.06-.27,.32-.44,.6-.38l8.19,1.82c.27,.06,.44,.33,.38,.6-.05,.23-.26,.39-.49,.39Z" fill="#2f2e41"></path>
      <path d="M497.06,238.82s-.09,0-.13-.02l-8.19-2.27c-.27-.07-.42-.35-.35-.62,.07-.27,.35-.42,.62-.35l8.19,2.27c.27,.07,.42,.35,.35,.62-.06,.22-.26,.37-.48,.37Z" fill="#2f2e41"></path>
      <path d="M497.52,246.56c-1.4,0-8.44-1.32-8.74-1.37-.27-.05-.45-.31-.4-.58,.05-.27,.32-.45,.58-.4,2.01,.38,7.47,1.36,8.55,1.36,.28,0,.5,.22,.5,.5s-.22,.5-.5,.5Z" fill="#2f2e41"></path>
      <path d="M505.25,248.83c-.28,0-.5-.22-.5-.5,0-.26,.19-.47,.44-.5,.29-.14,1.74-1.63,.94-4.84-.06-.25,.08-.51,.33-.6,.02,0,1.81-.62,2.28-1.88,.22-.59,.13-1.22-.28-1.95-.12-.21-.07-.47,.1-.62,.01-.01,1.33-1.2,1.44-2.97,.07-1.2-.43-2.41-1.48-3.6-.18-.2-.17-.5,.02-.69h0s.96-1.18-1.41-4.35c-.17-.22-.12-.53,.1-.7,.22-.17,.53-.12,.7,.1,2.2,2.93,1.92,4.56,1.59,5.26,1.07,1.31,1.57,2.67,1.49,4.05-.1,1.64-1.02,2.85-1.5,3.36,.41,.86,.46,1.69,.17,2.46-.48,1.26-1.79,1.99-2.48,2.3,.56,2.74-.38,4.33-.83,4.9-.18,.23-.64,.75-1.12,.75Z" fill="#2f2e41"></path>
      <g>
        <rect x="253.16" y="292.24" width="339" height="20.25" rx="3.13" ry="3.13" fill="#fff"></rect>
        <path d="M589.04,313.04H256.29c-2.03,0-3.67-1.65-3.67-3.67v-14c0-2.02,1.65-3.67,3.67-3.67h332.75c2.03,0,3.67,1.65,3.67,3.67v14c0,2.02-1.65,3.67-3.67,3.67Zm-332.75-20.25c-1.42,0-2.58,1.16-2.58,2.58v14c0,1.42,1.16,2.58,2.58,2.58h332.75c1.42,0,2.58-1.16,2.58-2.58v-14c0-1.42-1.16-2.58-2.58-2.58H256.29Z" fill="#2f2e41"></path>
      </g>
    </g>
    <path d="M811.38,634.71H54.38c-.3,0-.55-.24-.55-.55s.24-.55,.55-.55H811.38c.3,0,.55,.24,.55,.55s-.24,.55-.55,.55Z" fill="#2f2e41"></path>
    <g>
      <polygon points="343.92 68.06 332.65 56.88 321.21 67.67 320.52 66.94 332.67 55.49 344.62 67.35 343.92 68.06" fill="#0071f2"></polygon>
      <rect x="332.16" y="20.16" width="1" height="36.02" fill="#0071f2"></rect>
      <path d="M389.22,112.73h-113.69c-.16,0-.31-.07-.41-.19-.1-.12-.15-.27-.13-.43,3.09-23.65,18.31-35.15,30.53-40.63,16.16-7.24,34.98-7.48,51.63-.65,30.55,12.54,32.59,41.03,32.61,41.32,0,.15-.04,.3-.15,.41-.1,.11-.25,.17-.4,.17Zm-113.06-1.09h112.46c-.47-4.07-4.38-28.51-31.88-39.8-16.37-6.72-34.88-6.49-50.77,.63-11.87,5.32-26.61,16.42-29.82,39.16Z" fill="#2f2e41"></path>
      <g>
        <circle cx="332.66" cy="114.15" r="18.01" fill="#0071f2"></circle>
        <path d="M332.66,132.66c-10.21,0-18.51-8.3-18.51-18.51s8.3-18.51,18.51-18.51,18.51,8.3,18.51,18.51-8.3,18.51-18.51,18.51Zm0-36.02c-9.66,0-17.51,7.85-17.51,17.51s7.85,17.51,17.51,17.51,17.51-7.85,17.51-17.51-7.85-17.51-17.51-17.51Z" fill="#fff"></path>
      </g>
    </g>
    <path d="M614.93,64.26c-.17,0-.34-.09-.44-.26-4.24-7.56-10.41-13.91-17.84-18.37-.24-.14-.31-.45-.17-.69,.14-.24,.45-.31,.69-.17,7.58,4.55,13.87,11.02,18.2,18.74,.13,.24,.05,.55-.19,.68-.08,.04-.16,.06-.24,.06Z" fill="#2f2e41"></path>
    <path d="M531.53,119.14c-.15,0-.3-.07-.4-.2-8.21-10.72-11.76-24-9.98-37.38,1.77-13.39,8.66-25.28,19.38-33.49,14.5-11.11,33.94-13.52,50.72-6.3,.25,.11,.37,.4,.26,.66-.11,.25-.41,.37-.66,.26-16.45-7.08-35.5-4.71-49.72,6.17-10.51,8.05-17.25,19.71-18.99,32.83-1.74,13.12,1.73,26.13,9.78,36.64,.17,.22,.13,.53-.09,.7-.09,.07-.2,.1-.3,.1Z" fill="#2f2e41"></path>
    <path d="M542.87,129.87c-.1,0-.2-.03-.28-.09-1.99-1.37-3.91-2.9-5.68-4.55-.2-.19-.21-.5-.03-.71,.19-.2,.51-.21,.71-.03,1.74,1.62,3.62,3.11,5.57,4.46,.23,.16,.29,.47,.13,.69-.1,.14-.25,.22-.41,.22Z" fill="#2f2e41"></path>
    <path d="M571.2,138.66h-.04c-8.07,0-16.12-1.98-23.28-5.7-.25-.13-.34-.43-.21-.67,.13-.24,.43-.34,.67-.21,7.02,3.65,14.91,5.58,22.82,5.59h.04c27.3,0,49.51-22.19,49.54-49.5v-1.85c0-.28,.22-.5,.5-.5s.5,.22,.5,.5v1.85c-.02,27.85-22.69,50.5-50.54,50.5Z" fill="#2f2e41"></path>
    <path d="M535.38,86.47s-.02,0-.03,0c-.28-.02-.49-.25-.47-.53,.38-6.48,2.49-12.76,6.12-18.15,.16-.23,.47-.29,.69-.14,.23,.15,.29,.46,.14,.69-3.53,5.24-5.58,11.34-5.95,17.65-.02,.27-.24,.47-.5,.47Z" fill="#2f2e41"></path>
    <path d="M571.18,124.49c-9.32,0-18.64-3.55-25.74-10.65-5.99-6-9.71-13.95-10.48-22.39-.03-.27,.18-.52,.45-.54,.28-.02,.52,.18,.54,.45,.75,8.21,4.37,15.94,10.19,21.77,13.78,13.8,36.22,13.82,50.02,.04,6.69-6.67,10.37-15.55,10.38-25,0-9.45-3.66-18.33-10.34-25.02s-15.55-10.37-25-10.38h-.03c-9.44,0-18.31,3.67-24.99,10.34-.2,.19-.51,.2-.71,0-.2-.2-.2-.51,0-.71,6.87-6.86,15.99-10.63,25.69-10.63h.03c9.71,0,18.84,3.8,25.71,10.67,6.86,6.87,10.64,16.01,10.63,25.72s-3.8,18.84-10.67,25.71c-7.09,7.08-16.39,10.61-25.69,10.61Z" fill="#2f2e41"></path>
    <path d="M571.24,109.2c-5.62,0-10.9-2.19-14.87-6.16-3.97-3.97-6.16-9.25-6.16-14.87,0-5.62,2.19-10.9,6.16-14.87,3.97-3.97,9.25-6.16,14.87-6.16h0c5.62,0,10.9,2.19,14.87,6.16,6.33,6.33,7.96,15.99,4.06,24.04-.12,.25-.42,.35-.67,.23-.25-.12-.35-.42-.23-.67,3.72-7.67,2.16-16.87-3.87-22.9-3.78-3.78-8.81-5.86-14.16-5.86h0c-5.35,0-10.38,2.09-14.16,5.87s-5.87,8.81-5.87,14.16c0,5.35,2.08,10.38,5.87,14.16,3.78,3.78,8.81,5.86,14.16,5.86h0c5.35,0,10.38-2.09,14.16-5.87,.2-.2,.51-.2,.71,0s.2,.51,0,.71c-3.97,3.97-9.25,6.16-14.87,6.16h0Z" fill="#2f2e41"></path>
    <path d="M571.24,97.64c-5.23,0-9.48-4.25-9.48-9.48s4.25-9.48,9.48-9.48,9.48,4.25,9.48,9.48-4.25,9.48-9.48,9.48Zm0-17.96c-4.67,0-8.48,3.8-8.48,8.48s3.8,8.48,8.48,8.48,8.48-3.8,8.48-8.48-3.8-8.48-8.48-8.48Z" fill="#2f2e41"></path>
    <path d="M622.32,83.38c-.1,0-.19-.03-.27-.08l-10.85-7.1c-.16-.11-.25-.3-.22-.49,.03-.19,.17-.35,.35-.41l30.16-8.74c.27-.07,.54,.08,.62,.34l2.75,9.45c.04,.13,.02,.26-.04,.38-.06,.12-.17,.2-.3,.24l-22.06,6.39s-.09,.02-.14,.02Zm-9.66-7.42l9.75,6.38,21.36-6.19-2.47-8.49-28.64,8.3Z" fill="#2f2e41"></path>
    <path d="M611.28,75.64c-.14,0-.28-.06-.38-.17-.13-.15-.16-.36-.08-.53l5.37-11.8c.06-.13,.18-.23,.32-.27l22.05-6.41c.13-.04,.26-.02,.38,.04,.12,.06,.2,.17,.24,.3l2.75,9.46c.04,.13,.02,.26-.04,.38-.06,.12-.17,.2-.3,.24l-30.16,8.74s-.09,.02-.14,.02Zm5.73-11.88l-4.82,10.6,28.64-8.3-2.47-8.5-21.35,6.2Z" fill="#2f2e41"></path>
    <path d="M573.53,87.41c-.43,0-.83-.28-.96-.72-.15-.53,.15-1.09,.68-1.24l68.29-19.81c.53-.15,1.08,.15,1.24,.68,.15,.53-.15,1.09-.68,1.24l-68.29,19.81c-.09,.03-.19,.04-.28,.04Z" fill="#2f2e41"></path>
    <path d="M117.93,358.34h-15.11c-.28,0-.5-.22-.5-.5v-33.4c0-.28,.22-.5,.5-.5h15.11c.28,0,.5,.22,.5,.5v33.4c0,.28-.22,.5-.5,.5Zm-14.61-1h14.11v-32.4h-14.11v32.4Z" fill="#2f2e41"></path>
    <path d="M138.6,358.34h-15.11c-.28,0-.5-.22-.5-.5v-52.48c0-.28,.22-.5,.5-.5h15.11c.28,0,.5,.22,.5,.5v52.48c0,.28-.22,.5-.5,.5Zm-14.61-1h14.11v-51.48h-14.11v51.48Z" fill="#2f2e41"></path>
    <path d="M159.27,358.33h-15.11c-.28,0-.5-.22-.5-.5v-43.73c0-.28,.22-.5,.5-.5h15.11c.28,0,.5,.22,.5,.5v43.73c0,.28-.22,.5-.5,.5Zm-14.61-1h14.11v-42.73h-14.11v42.73Z" fill="#2f2e41"></path>
    <path d="M179.94,358.33h-15.11c-.28,0-.5-.22-.5-.5v-64.4c0-.28,.22-.5,.5-.5h15.11c.28,0,.5,.22,.5,.5v64.4c0,.28-.22,.5-.5,.5Zm-14.61-1h14.11v-63.4h-14.11v63.4Z" fill="#2f2e41"></path>
    <path d="M200.61,358.34h-15.11c-.28,0-.5-.22-.5-.5v-73.15c0-.28,.22-.5,.5-.5h15.11c.28,0,.5,.22,.5,.5v73.15c0,.28-.22,.5-.5,.5Zm-14.61-1h14.11v-72.15h-14.11v72.15Z" fill="#2f2e41"></path>
    <path d="M100.14,358.18h-6.04c-.28,0-.5-.22-.5-.5s.22-.5,.5-.5h6.04c.28,0,.5,.22,.5,.5s-.22,.5-.5,.5Z" fill="#2f2e41"></path>
    <path d="M210.38,358.18h-6.04c-.28,0-.5-.22-.5-.5s.22-.5,.5-.5h6.04c.28,0,.5,.22,.5,.5s-.22,.5-.5,.5Z" fill="#2f2e41"></path>
    <path d="M100.14,351h-6.04c-.28,0-.5-.22-.5-.5s.22-.5,.5-.5h6.04c.28,0,.5,.22,.5,.5s-.22,.5-.5,.5Z" fill="#2f2e41"></path>
    <path d="M210.38,351h-6.04c-.28,0-.5-.22-.5-.5s.22-.5,.5-.5h6.04c.28,0,.5,.22,.5,.5s-.22,.5-.5,.5Z" fill="#2f2e41"></path>
    <path d="M100.14,343.83h-6.04c-.28,0-.5-.22-.5-.5s.22-.5,.5-.5h6.04c.28,0,.5,.22,.5,.5s-.22,.5-.5,.5Z" fill="#2f2e41"></path>
    <path d="M210.38,343.83h-6.04c-.28,0-.5-.22-.5-.5s.22-.5,.5-.5h6.04c.28,0,.5,.22,.5,.5s-.22,.5-.5,.5Z" fill="#2f2e41"></path>
    <path d="M100.14,336.65h-6.04c-.28,0-.5-.22-.5-.5s.22-.5,.5-.5h6.04c.28,0,.5,.22,.5,.5s-.22,.5-.5,.5Z" fill="#2f2e41"></path>
    <path d="M210.38,336.65h-6.04c-.28,0-.5-.22-.5-.5s.22-.5,.5-.5h6.04c.28,0,.5,.22,.5,.5s-.22,.5-.5,.5Z" fill="#2f2e41"></path>
    <path d="M100.14,329.48h-6.04c-.28,0-.5-.22-.5-.5s.22-.5,.5-.5h6.04c.28,0,.5,.22,.5,.5s-.22,.5-.5,.5Z" fill="#2f2e41"></path>
    <path d="M210.38,329.48h-6.04c-.28,0-.5-.22-.5-.5s.22-.5,.5-.5h6.04c.28,0,.5,.22,.5,.5s-.22,.5-.5,.5Z" fill="#2f2e41"></path>
    <path d="M100.14,322.3h-6.04c-.28,0-.5-.22-.5-.5s.22-.5,.5-.5h6.04c.28,0,.5,.22,.5,.5s-.22,.5-.5,.5Z" fill="#2f2e41"></path>
    <path d="M210.38,322.3h-6.04c-.28,0-.5-.22-.5-.5s.22-.5,.5-.5h6.04c.28,0,.5,.22,.5,.5s-.22,.5-.5,.5Z" fill="#2f2e41"></path>
    <path d="M100.14,315.13h-6.04c-.28,0-.5-.22-.5-.5s.22-.5,.5-.5h6.04c.28,0,.5,.22,.5,.5s-.22,.5-.5,.5Z" fill="#2f2e41"></path>
    <path d="M210.38,315.13h-6.04c-.28,0-.5-.22-.5-.5s.22-.5,.5-.5h6.04c.28,0,.5,.22,.5,.5s-.22,.5-.5,.5Z" fill="#2f2e41"></path>
    <path d="M100.14,307.95h-6.04c-.28,0-.5-.22-.5-.5s.22-.5,.5-.5h6.04c.28,0,.5,.22,.5,.5s-.22,.5-.5,.5Z" fill="#2f2e41"></path>
    <path d="M210.38,307.95h-6.04c-.28,0-.5-.22-.5-.5s.22-.5,.5-.5h6.04c.28,0,.5,.22,.5,.5s-.22,.5-.5,.5Z" fill="#2f2e41"></path>
    <path d="M100.14,300.79h-6.04c-.28,0-.5-.22-.5-.5s.22-.5,.5-.5h6.04c.28,0,.5,.22,.5,.5s-.22,.5-.5,.5Z" fill="#2f2e41"></path>
    <path d="M210.38,300.79h-6.04c-.28,0-.5-.22-.5-.5s.22-.5,.5-.5h6.04c.28,0,.5,.22,.5,.5s-.22,.5-.5,.5Z" fill="#2f2e41"></path>
    <path d="M100.14,293.6h-6.04c-.28,0-.5-.22-.5-.5s.22-.5,.5-.5h6.04c.28,0,.5,.22,.5,.5s-.22,.5-.5,.5Z" fill="#2f2e41"></path>
    <path d="M210.38,293.6h-6.04c-.28,0-.5-.22-.5-.5s.22-.5,.5-.5h6.04c.28,0,.5,.22,.5,.5s-.22,.5-.5,.5Z" fill="#2f2e41"></path>
    <path d="M108.7,313.3c-.24,0-.48-.09-.67-.26-.41-.37-.44-1.01-.06-1.41l21.43-23.44c.36-.4,.97-.44,1.38-.09l20.62,17.4,18.79-25.27c.07-.09,.16-.17,.25-.24l13.81-9.07c.46-.3,1.08-.17,1.38,.29,.3,.46,.17,1.08-.29,1.38l-13.66,8.97-19.32,25.98c-.17,.22-.41,.36-.69,.4-.28,.04-.55-.05-.76-.23l-20.7-17.47-20.79,22.74c-.2,.22-.47,.33-.74,.33Z" fill="#2f2e41"></path>
    <polygon points="187.24 279.73 194.44 265.41 178.44 266.34 187.24 279.73" fill="#2f2e41"></polygon>
    <path d="M204.48,192.26H120.56c-.28,0-.5-.22-.5-.5v-62.35c0-.28,.22-.5,.5-.5h6.54c.28,0,.5,.22,.5,.5s-.22,.5-.5,.5h-6.04v61.35h82.92v-15.33c0-.28,.22-.5,.5-.5s.5,.22,.5,.5v15.83c0,.28-.22,.5-.5,.5Z" fill="#2f2e41"></path>
    <path d="M204.48,171.78c-.28,0-.5-.22-.5-.5v-41.37h-69.9c-.28,0-.5-.22-.5-.5s.22-.5,.5-.5h70.4c.28,0,.5,.22,.5,.5v41.87c0,.28-.22,.5-.5,.5Z" fill="#2f2e41"></path>
    <path d="M204.48,192.26H120.56c-.28,0-.5-.22-.5-.5v-12.6c0-.28,.22-.5,.5-.5h83.92c.28,0,.5,.22,.5,.5v12.6c0,.28-.22,.5-.5,.5Zm-83.42-1h82.92v-11.6H121.06v11.6Z" fill="#2f2e41"></path>
    <path d="M198.53,188.21H126.52c-.28,0-.5-.22-.5-.5v-4.5c0-.28,.22-.5,.5-.5h72.01c.28,0,.5,.22,.5,.5v4.5c0,.28-.22,.5-.5,.5Zm-71.51-1h71.01v-3.5H127.02v3.5Z" fill="#2f2e41"></path>
    <g>
      <polygon points="178.53 155.68 151.33 139.98 151.33 171.39 178.53 155.68" fill="#0071f2"></polygon>
      <path d="M150.83,172.26v-33.14l28.7,16.57-28.7,16.58Zm1-31.41v29.68l25.7-14.84-25.7-14.83Z" fill="#2f2e41"></path>
    </g>
  </g>
  <g>
    <g>
      <path d="M564.09,552.75l97.15-.22c3.42-.02,6.38,2.34,7.14,5.67l13.73,60.43c1.81,7.98-4.25,15.58-12.43,15.59l-102.75,.11-2.85-81.58Z" fill="#0071f2"></path>
      <path d="M566.46,634.83l-.02-.48-2.87-82.1,97.67-.22h.04c3.66,0,6.78,2.49,7.59,6.06l13.73,60.43c.9,3.95-.04,8.04-2.56,11.21-2.53,3.17-6.3,4.99-10.36,4.99l-103.23,.11Zm-1.85-81.58l2.81,80.58,102.26-.11c3.75,0,7.24-1.69,9.58-4.62s3.2-6.71,2.37-10.36l-13.73-60.43c-.71-3.13-3.44-5.31-6.65-5.28l-96.64,.22Z" fill="#2f2e41"></path>
    </g>
    <g>
      <path d="M573.11,634.21h-18.33c-2.35,0-4.65-.73-6.52-2.14-3.28-2.49-6.81-7.7-4.47-18.33l13.44-56.31c1.38-6.24,10.23-6.44,11.9-.28l14.95,58.83c1.11,4.11,.74,8.51-1.21,12.3-.07,.13-.14,.27-.21,.4-1.9,3.45-5.59,5.53-9.53,5.53Z" fill="#2f2e41"></path>
      <path d="M573.11,634.71h-18.33c-2.49,0-4.92-.8-6.82-2.24-3.44-2.61-7.04-7.99-4.66-18.84l13.44-56.32c.68-3.07,3.16-5.1,6.31-5.17,3.21-.07,5.73,1.84,6.56,4.88l14.95,58.84c1.17,4.32,.73,8.82-1.25,12.65-.07,.14-.14,.28-.22,.41-1.97,3.57-5.79,5.79-9.97,5.79Zm-9.91-81.58s-.09,0-.13,0c-2.04,.05-4.66,1.23-5.36,4.4l-13.44,56.32c-2.27,10.32,1.08,15.38,4.29,17.82,1.74,1.32,3.94,2.04,6.22,2.04h18.33c3.82,0,7.31-2.02,9.1-5.27,.07-.13,.14-.26,.21-.39,1.86-3.61,2.28-7.85,1.17-11.94l-14.95-58.84c-.83-3.06-3.41-4.14-5.43-4.14Z" fill="#2f2e41"></path>
    </g>
    <g>
      <path d="M577.71,542.84h-23.03s1.02-3.97,5.37-6.46c6.5-3.72,14.9-.97,17.51,6.05,.05,.14,.1,.27,.14,.41Z" fill="#2f2e41"></path>
      <path d="M578.4,543.34h-24.36l.16-.62c.04-.17,1.13-4.21,5.61-6.77,3.33-1.9,7.29-2.26,10.87-.96,3.42,1.24,6.11,3.89,7.36,7.27,.05,.14,.1,.28,.15,.43l.22,.66Zm-23.01-1h21.61c-1.19-2.98-3.61-5.31-6.66-6.41-3.3-1.19-6.96-.87-10.03,.89-3.09,1.77-4.44,4.35-4.91,5.53Z" fill="#2f2e41"></path>
    </g>
    <g>
      <path d="M566.32,534.67h49.52s8.74,4.53,13.53,17.99h-50.51s2.32-17.24-12.54-17.99Z" fill="#fff"></path>
      <path d="M630.08,553.16h-51.79l.08-.57c.01-.08,1.05-8.31-3.18-13.4-2.06-2.47-5.05-3.82-8.89-4.02l.03-1h49.64l.11,.06c.36,.19,8.97,4.77,13.77,18.26l.24,.67Zm-50.66-1h49.24c-4.43-11.82-11.98-16.44-12.94-16.99h-44.46c1.87,.74,3.44,1.86,4.7,3.38,3.9,4.69,3.64,11.58,3.46,13.6Z" fill="#2f2e41"></path>
    </g>
    <g>
      <polygon points="606.18 542.1 608.41 552.5 649.54 552.49 647.03 541.85 606.18 542.1" fill="#e6e7e8"></polygon>
      <path d="M608.01,553l-2.44-11.4,41.87-.25,2.74,11.64h-42.16Zm-1.21-10.39l2.01,9.4h40.09s-2.27-9.64-2.27-9.64l-39.84,.24Z" fill="#2f2e41"></path>
    </g>
    <path d="M631.03,600.3c-8.46,0-15.82-2.25-21.88-6.7-6.31-4.63-10.77-11.51-12.57-19.36l-4.73-21.26c-.06-.27,.11-.54,.38-.6,.27-.06,.54,.11,.6,.38l4.73,21.26c1.74,7.61,6.07,14.28,12.19,18.77,6.1,4.47,13.55,6.66,22.18,6.5,.12,0,9.11,.02,15.09-5.9,3.55-3.51,5.35-8.42,5.36-14.56,0-2.37-.3-4.85-.9-7.36l-4.45-18.72c-.06-.27,.1-.54,.37-.6,.27-.07,.54,.1,.6,.37l4.45,18.72c.61,2.58,.92,5.14,.92,7.59,0,6.43-1.91,11.57-5.66,15.28-6.27,6.21-15.39,6.17-15.78,6.19-.3,0-.6,0-.89,0Z" fill="#2f2e41"></path>
    <path d="M548.26,632.56c-.14,0-.28-.06-.38-.17-.18-.21-.16-.52,.05-.71l15.58-13.46c.19-.16,.46-.16,.65,0l16.05,13.29c.21,.18,.24,.49,.07,.7-.17,.21-.49,.24-.7,.07l-15.73-13.02-15.26,13.18c-.09,.08-.21,.12-.33,.12Z" fill="#fff"></path>
    <path d="M563.84,619.11c-.28,0-.5-.22-.5-.5v-65.86c0-.28,.22-.5,.5-.5s.5,.22,.5,.5v65.86c0,.28-.22,.5-.5,.5Z" fill="#fff"></path>
  </g>
</svg>
